<svg width="153" height="152" viewBox="0 0 153 152" fill="none" xmlns="http://www.w3.org/2000/svg">
<path d="M39.5 37.6C34.9 46.6 31.1 53.8 28.2 59.2C25.8 63.7 23.2 68.1 20.3 72.3C18.1 75.4 15.6 78.2 12.6 80.5C9.3 83 5.9 85.4 2.3 87.5L0 83.9C2.6 82 5 80.1 7.1 78.2C9.6 75.8 11.9 73.2 13.8 70.3C16.8 66 19.6 61.4 22.2 56.8C25.4 51.2 29.3 43.6 33.9 34C36.7 28.1 39.8 22.4 43.4 17C45.9 13.2 48.8 9.69999 52.1 6.59999C54.5 4.39999 57.2 2.60001 60.2 1.40001C62.7 0.400009 65.4 0 68.1 0C70.7 0.1 73.3 0.800009 75.7 1.90001C78.9 3.60001 81.7 6 83.9 8.8C87.7 13.4 91 18.3 93.9 23.5C97.6 29.9 101.9 38.3 107 48.8C109.7 54.6 112.8 60.2 116.2 65.6C118.7 69.7 121.7 73.4 125.1 76.8C128 79.7 131.4 82.1 135.1 83.9C139.1 85.9 143.2 87.5 147.5 88.7L150.4 93.6C145.3 93.1 140.2 92 135.4 90.3C130.9 88.7 126.7 86.2 123.1 83.1C118.9 79.4 115.2 75.2 112.1 70.6C108 64.5 104.3 58 101.1 51.4C96.4 42.1 92.5 34.4 89.3 28.6C86.8 23.9 83.9 19.3 80.7 15C78.9 12.4 76.6 10.2 74 8.40001C72.2 7.30001 70.1 6.69999 68 6.59999C65.8 6.49999 63.7 7.00001 61.7 7.90001C59.2 9.10001 57.1 10.9 55.3 13C52.6 16 50.2 19.2 48.1 22.6C45.3 26.6 42.5 31.6 39.5 37.6Z" fill="url(#paint0_linear_403:433)"/>
<path d="M108.399 96.7001C115.199 96.9001 121.899 96.6001 128.699 95.7001C134.699 94.9001 140.699 93.5001 146.399 91.6001L147.099 95.3001C137.899 101.2 124.899 103.8 108.199 103.3C101.599 103.2 95.0994 102.3 88.6994 100.7C83.6994 99.4001 78.7994 97.6001 74.0994 95.4001C70.8994 93.9001 67.7994 92.4001 64.9994 90.8001C62.0994 89.2001 59.1994 87.8001 56.0994 86.4001C53.0994 85.1001 50.0994 84.0001 46.9994 83.0001C43.7994 82.1001 40.3994 81.5001 36.9994 81.4001C31.6994 81.2001 26.2994 81.6001 21.0994 82.6001C15.6994 83.6001 10.3994 85.0001 5.19942 87.0001L2.89941 84.3001L7.19941 82.2001C11.6994 79.7001 16.4994 77.8001 21.4994 76.6001C26.5994 75.3001 31.8994 74.8001 37.1994 74.9001C40.9994 75.0001 44.6994 75.5001 48.3994 76.5001C51.6994 77.4001 54.9994 78.6001 58.0994 80.0001C61.0994 81.4001 64.1994 82.9001 67.1994 84.6001C70.1994 86.3001 73.3994 87.8001 76.6994 89.3001C81.0994 91.3001 85.5994 92.9001 90.2994 94.2001C96.1994 95.8001 102.299 96.7001 108.399 96.7001Z" fill="url(#paint1_linear_403:433)"/>
<path d="M118.2 47.1994C115.8 47.0994 113.4 47.6994 111.3 48.8994C108.4 50.6994 105.8 52.9994 103.7 55.5994C100.1 59.8994 96.6996 64.3994 93.5996 69.0994C89.7996 74.7994 84.9996 82.2994 79.2996 91.3994C71.5996 103.799 64.3996 112.799 57.7996 118.299C51.1996 123.799 44.2996 126.499 36.9996 126.199C29.2996 125.899 22.0996 122.099 15.3996 114.699C8.59961 107.299 3.49961 96.9994 0.0996094 83.8994L6.49961 85.0994C9.99961 95.4994 14.4996 103.799 19.9996 109.999C25.3996 116.199 31.1996 119.399 37.2996 119.599C42.9996 119.799 48.6996 117.399 54.3996 112.499C60.1996 107.599 66.5996 99.4994 73.4996 88.2994C79.7996 78.2994 85.0996 70.0994 89.2996 63.7994C92.6996 58.6994 96.3996 53.7994 100.5 49.1994C103 46.2994 106 43.8994 109.4 42.1994C112.2 40.9994 115.3 40.3994 118.3 40.5994C125.6 40.8994 132 45.1994 137.7 53.5994C143.3 61.9994 148.3 74.8994 152.7 92.1994L145.7 89.2994C141.3 74.9994 136.9 64.3994 132.5 57.4994C128.1 50.8994 123.3 47.3994 118.2 47.1994Z" fill="url(#paint2_linear_403:433)"/>
<path d="M93.5998 144.9C97.1998 144.9 100.8 143.7 103.6 141.5C106.9 139.1 111.1 134.5 116.2 127.9C120.2 122.8 123.4 118.5 125.9 115.2C128.4 111.9 130.8 108.9 133.1 106.3C135.3 103.7 137.7 101.3 140 98.9002C142.4 96.6002 145.3 93.7002 148.8 90.3002L152.8 92.5002C149.6 96.2002 146.9 99.3002 144.7 101.8C142.5 104.4 140.4 107 138.3 109.7C136.2 112.4 133.9 115.4 131.3 118.8C128.7 122.2 125.5 126.5 121.5 131.7C116.1 138.9 111.3 144.1 107.1 147.1C103.1 150.1 98.2998 151.6 93.2998 151.4C90.7998 151.3 88.2998 150.9 85.9998 150C83.1998 148.8 80.6998 147.2 78.3998 145.3C74.7998 142.3 71.3998 139 68.1998 135.4C64.2998 131.1 59.3998 125.6 53.3998 118.8C48.8998 113.6 44.7998 109.3 41.0998 105.8C37.7998 102.6 34.0998 99.7002 30.1998 97.3002C26.5998 95.2002 22.7998 93.5002 18.7998 92.2002C14.1998 90.9002 9.4998 90.0002 4.7998 89.5002L6.3998 84.7002C11.2998 85.1002 16.1998 85.8002 21.0998 86.8002C25.3998 87.7002 29.4998 89.3002 33.2998 91.5002C37.4998 93.9002 41.3998 96.8002 44.8998 100.1C49.4998 104.4 53.8998 109 57.9998 113.9C63.9998 120.7 68.7998 126.2 72.5998 130.2C76.3998 134.2 79.4998 137.4 81.9998 139.5C83.8998 141.3 85.9998 142.7 88.2998 143.8C89.8998 144.4 91.6998 144.8 93.5998 144.9Z" fill="url(#paint3_linear_403:433)"/>
<defs>
<linearGradient id="paint0_linear_403:433" x1="-2.0126" y1="76.2727" x2="135.812" y2="39.3447" gradientUnits="userSpaceOnUse">
<stop offset="0.2" stop-color="#FF5800"/>
<stop offset="0.24" stop-color="#FF7000"/>
<stop offset="0.32" stop-color="#FF9500"/>
<stop offset="0.4" stop-color="#FFB200"/>
<stop offset="0.47" stop-color="#FFC600"/>
<stop offset="0.55" stop-color="#FFD300"/>
<stop offset="0.62" stop-color="#FFD700"/>
<stop offset="0.66" stop-color="#FFCE00"/>
<stop offset="0.72" stop-color="#FFB600"/>
<stop offset="0.81" stop-color="#FF8E00"/>
<stop offset="0.9" stop-color="#FF5800"/>
</linearGradient>
<linearGradient id="paint1_linear_403:433" x1="2.89541" y1="89.1348" x2="147.069" y2="89.1348" gradientUnits="userSpaceOnUse">
<stop offset="0.09" stop-color="#FF5800"/>
<stop offset="0.19" stop-color="#FF7907"/>
<stop offset="0.31" stop-color="#FF990E"/>
<stop offset="0.4" stop-color="#FFAD12"/>
<stop offset="0.47" stop-color="#FFB414"/>
<stop offset="0.53" stop-color="#FFAD12"/>
<stop offset="0.62" stop-color="#FF980E"/>
<stop offset="0.73" stop-color="#FF7707"/>
<stop offset="0.82" stop-color="#FF5800"/>
</linearGradient>
<linearGradient id="paint2_linear_403:433" x1="3.52001" y1="67.8081" x2="151.347" y2="99.2225" gradientUnits="userSpaceOnUse">
<stop offset="0.5" stop-color="#FF5800"/>
<stop offset="0.64" stop-color="#CE056A" stop-opacity="0.99"/>
<stop offset="0.76" stop-color="#CF0768" stop-opacity="0.99"/>
<stop offset="0.81" stop-color="#D20D60" stop-opacity="0.99"/>
<stop offset="0.85" stop-color="#D81753" stop-opacity="0.99"/>
<stop offset="0.88" stop-color="#E12541" stop-opacity="0.99"/>
<stop offset="0.91" stop-color="#EC3829"/>
<stop offset="0.94" stop-color="#F94E0C"/>
<stop offset="0.95" stop-color="#FF5800"/>
</linearGradient>
<linearGradient id="paint3_linear_403:433" x1="9.5626" y1="123.825" x2="154.384" y2="103.478" gradientUnits="userSpaceOnUse">
<stop stop-color="#FF5800"/>
<stop offset="0.06" stop-color="#FC5400"/>
<stop offset="0.13" stop-color="#F54700"/>
<stop offset="0.19" stop-color="#E83300"/>
<stop offset="0.26" stop-color="#D61600"/>
<stop offset="0.3" stop-color="#C80000"/>
<stop offset="0.48" stop-color="#C80000"/>
<stop offset="0.91" stop-color="#FF5800"/>
</linearGradient>
</defs>
</svg>
