<svg width="700" height="700" viewBox="0 0 700 700" fill="none" xmlns="http://www.w3.org/2000/svg">
<g clip-path="url(#clip0_201:171)">
<path opacity="0.1" d="M682.979 405.785C682.979 406.317 682.979 406.848 682.979 407.371C682.903 416.542 682.459 425.689 681.647 434.812C681.651 434.867 681.651 434.923 681.647 434.978C681.583 435.736 681.512 436.486 681.441 437.244C681.32 438.526 681.192 439.798 681.049 441.08C679.389 456.677 676.642 472.072 672.838 487.097C667.742 507.399 660.537 526.816 651.401 544.873C648.59 550.394 645.597 555.737 642.42 560.904C640.725 563.641 638.995 566.317 637.207 568.949C635.954 570.792 634.676 572.605 633.375 574.389L632.564 575.487C625.719 584.686 618.34 593.268 610.486 601.167C597.667 614.173 583.864 625.488 569.841 635.983C569.044 636.584 568.239 637.177 567.434 637.726C567.378 637.776 567.319 637.82 567.256 637.857C548.198 651.961 528.435 664.688 508.074 674.878C485.782 686.062 462.764 694.195 439.148 697.752C406.231 702.703 372.915 698.675 340.197 691.754C312.987 686.032 286.105 678.17 259.72 668.218L255.376 666.553C253.125 665.676 250.877 664.781 248.632 663.869C235.067 658.377 221.654 652.275 208.393 645.563C175.088 628.773 143.271 607.863 113.437 583.158C109.639 580.031 105.895 576.835 102.206 573.569C97.05 569.025 91.9555 564.347 86.9227 559.535L83.8176 556.589C70.6468 543.965 58.3069 530.095 46.9121 515.104C31.5859 494.689 18.4888 471.659 9.87845 445.369C8.52055 441.237 7.2766 437.026 6.1466 432.738L6.03977 432.311C5.47003 430.131 4.94301 427.952 4.45872 425.686C3.74654 422.443 3.12219 419.16 2.58568 415.836C2.47173 415.199 2.37202 414.563 2.27944 413.918C0.577231 402.731 -0.174569 391.359 0.0360501 379.983C0.214171 370.015 1.16807 360.091 2.88479 350.345C4.64191 340.242 7.34966 330.422 10.9539 321.082C14.211 312.683 18.361 304.849 23.296 297.781C26.7638 292.84 30.6638 288.38 34.926 284.479C42.6532 277.436 51.2208 272.528 60.1018 268.649C64.2752 266.819 68.5056 265.215 72.7573 263.724C75.7699 262.661 78.7966 261.65 81.8092 260.656L90.6973 257.718C96.3947 255.818 102.092 253.865 107.704 251.756C123.002 246.037 137.993 239.116 151.86 228.795C154.053 227.165 156.29 225.378 158.526 223.46C161.375 221.037 164.181 218.405 166.958 215.563C169.764 212.686 172.513 209.609 175.134 206.349C175.54 205.843 175.939 205.338 176.338 204.823C178.474 202.069 180.547 199.184 182.47 196.185C183.41 194.72 184.321 193.23 185.19 191.713C186.394 189.612 187.533 187.477 188.587 185.28C193.872 174.297 197.133 162.18 196.749 149.41C196.693 147.305 196.538 145.207 196.286 143.125C195.36 135.428 194.47 127.913 193.815 120.565C191.066 90.1689 192.226 62.6058 210.864 36.7077C234.039 4.51585 270.41 -2.04804 303.52 0.523474C399.245 7.93291 486.388 74.8271 562.969 154.465C569.592 161.346 576.135 168.32 582.597 175.386C584.225 177.164 585.856 178.954 587.489 180.756C599.597 194.102 611.518 207.944 622.621 222.772C623.519 223.975 624.416 225.178 625.299 226.389C625.841 227.139 626.389 227.88 626.923 228.638C630.384 233.433 633.743 238.343 637 243.37C645.726 256.715 653.431 271.013 660.018 286.083C670.106 309.734 676.935 335.26 680.23 361.633C681.469 371.211 682.285 380.863 682.673 390.548C682.794 393.398 682.872 396.257 682.915 399.108C682.915 400.023 682.915 400.929 682.915 401.845C682.986 403.17 682.986 404.46 682.979 405.785Z" fill="#6C63FF"/>
<path d="M280.587 391.166L269.192 639.417L280.587 639.6L289.845 387.679L280.587 391.166Z" fill="#3F3D56"/>
<path d="M238.568 516.943H97.5552V554.426H238.568V516.943Z" fill="#6C63FF"/>
<path d="M247.826 550.06V573.595H102.163C97.0067 569.051 91.9122 564.373 86.8794 559.561V550.06H247.826Z" fill="#3F3D56"/>
<path d="M276.912 496.494C276.513 498.751 275.993 500.983 275.445 503.206C273.828 509.63 271.884 515.967 271.506 522.645C271.001 531.466 272.931 541.726 267.945 548.133C266.664 549.789 264.99 551.027 263.843 552.797C263.667 553.074 263.505 553.365 263.359 553.668C262.333 555.743 262.212 558.271 262.198 560.642C262.21 565.699 262.479 570.75 263.003 575.766C264.691 593.026 268.024 610.32 263.644 626.612C262.85 629.438 261.925 632.206 260.874 634.902C258.737 640.655 256.408 646.33 255.71 652.563C255.197 657.183 255.354 661.942 255.326 666.64C253.075 665.763 250.827 664.868 248.581 663.956C235.016 658.464 221.604 652.362 208.343 645.65C208.378 645.415 208.414 645.171 208.442 644.935C209.461 637.177 208.065 629.245 206.37 621.678C202.809 605.648 197.767 589.774 194.783 573.63C193.581 567.325 192.793 560.912 192.425 554.453C192.34 553.006 192.29 551.55 192.283 550.094C192.247 548.194 192.283 546.294 192.347 544.376C192.497 540.549 192.632 536.008 190.132 533.68C188.758 532.416 186.942 532.198 185.339 531.431C182.248 529.958 180.133 526.541 177.683 523.804C176.514 522.416 175.088 521.398 173.525 520.836C171.963 520.274 170.313 520.186 168.717 520.579C152.707 525.068 140.941 541.691 126.043 550.094C125.466 550.426 124.889 550.739 124.305 551.036C122.378 551.9 120.543 553.047 118.842 554.453C117.647 555.468 116.78 556.964 116.392 558.681C116.015 560.529 116.343 562.464 116.528 564.364C116.827 567.454 116.719 570.583 116.207 573.63C116.014 574.811 115.76 575.976 115.445 577.117C114.875 579.183 114.113 581.205 113.387 583.219C109.589 580.092 105.845 576.896 102.156 573.63C96.9996 569.086 91.9051 564.408 86.8723 559.596L83.8171 556.589C70.6463 543.965 58.3065 530.095 46.9116 515.104C48.4286 509.874 50.6221 505.01 51.6761 499.649C52.2744 496.572 52.4952 493.373 53.3213 490.383C54.274 487.283 55.599 484.375 57.2526 481.753C63.3086 471.416 70.7035 462.359 79.1451 454.94C87.9691 447.199 98.1605 440.993 106.101 432.206C109.324 428.753 112.102 424.724 114.341 420.255C114.477 419.985 114.605 419.697 114.719 419.383C115.339 417.805 115.768 416.126 115.994 414.397C116.563 410.492 116.478 406.203 116.763 402.455C126.436 404.504 136.298 404.868 146.055 403.536C157.414 401.975 168.524 398.114 179.884 396.614C180.738 396.492 181.6 396.397 182.462 396.309C186.101 395.952 189.748 395.874 193.401 395.926C196.456 395.926 199.512 396.091 202.567 396.213L236.203 397.608C239.928 397.765 243.731 397.939 247.2 399.604C251.316 401.583 254.613 405.523 257.256 409.856C257.59 410.413 257.925 410.971 258.238 411.547C260.413 415.429 262.156 419.647 263.423 424.09C263.558 424.544 263.687 424.962 263.808 425.459C264.128 426.671 264.406 427.891 264.655 429.129C264.848 430.096 265.018 431.064 265.175 432.04C265.959 436.869 266.421 441.803 267.661 446.467C267.746 446.807 267.839 447.147 267.938 447.478C269.427 452.586 271.898 457.163 273.764 462.07C275.109 465.623 276.136 469.344 276.826 473.167C278.221 480.845 278.251 488.801 276.912 496.494Z" fill="#35323E"/>
<path d="M174.671 184.538C171.665 181.609 167.307 183.754 163.788 185.645C160.839 187.24 157.802 188.583 154.701 189.664C154.066 189.963 153.378 190.05 152.707 189.916C151.282 189.498 150.684 187.432 149.623 186.177C147.778 184.006 144.759 184.521 142.38 185.697C140.001 186.874 137.651 188.574 135.102 188.313C132.381 188.051 130.017 185.593 127.268 185.514C122.425 185.375 118.358 192.68 113.779 190.745C110.987 189.568 108.793 185.122 106.044 186.386C103.908 187.38 103.716 190.997 102.426 193.36C100.91 196.114 97.954 196.89 95.4257 198.11C87.4563 201.963 82.179 212.833 83.2188 223.242C83.7957 228.986 86.0676 234.251 87.5703 239.734C92.0286 255.677 90.4974 273.661 96.1165 289.037C96.8287 288.218 97.2275 287.913 97.9183 287.102C96.1417 291.612 95.799 296.77 96.9569 301.572C97.548 303.987 98.5095 306.236 99.2359 308.598C99.9905 311.248 100.6 313.956 101.059 316.705L107.255 350.161C109.677 363.236 112.105 376.312 112.525 389.701C112.787 398.407 112.242 407.122 110.901 415.678C122.126 413.403 132.395 407.309 143.769 407.388C147.942 407.388 152.08 408.26 156.218 408.957C168.282 411.023 180.451 412.034 192.632 411.982C194.526 412.114 196.424 411.788 198.215 411.023C199.782 410.203 201.064 408.748 202.546 407.693C205.444 405.601 208.955 405.078 212.295 405.078C227.529 404.738 242.207 411.563 257.341 413.969C263.316 398.619 263.672 380.226 259.086 364.178C257.726 359.41 255.895 354.763 255.354 349.751C255.137 346.67 255.08 343.575 255.183 340.485C255.159 332.574 253.995 324.731 251.743 317.315C250.86 314.412 249.799 311.457 249.892 308.363C249.984 305.268 251.231 302.383 252.455 299.646C254.941 294.067 257.441 288.436 260.952 283.729C264.548 278.865 269.049 275.16 273.501 271.525L284.49 262.494C282.987 250.874 281.05 238.636 277.026 227.949C273.002 217.262 266.984 207.438 258.844 201.188C256.099 199.167 253.227 197.418 250.255 195.957C246.096 193.813 241.766 191.921 237.257 191.599C232.13 191.241 227.08 192.924 222.017 193.97C206.078 197.256 187.319 196.855 174.671 184.538Z" fill="#6C63FF"/>
<path d="M294.83 386.18L289.603 394.26L279.746 409.489L268.351 427.088L265.168 432.005H258.993L106.094 432.223L10.3408 432.353H6.06771C5.49796 430.174 4.97094 427.995 4.48666 425.729C3.77447 422.486 3.15013 419.202 2.61361 415.878C2.49966 415.242 2.39996 414.606 2.30737 413.961L37.0478 386.162L50.1093 386.075L90.0629 385.796L112.376 385.639H116.449H119.006L133.877 385.543L247.214 384.75L253.011 384.706H255.525L262.184 384.663L286.961 384.489L291.718 382.274L292.067 382.728L294.83 386.18Z" fill="#3F3D56"/>
<path d="M292.694 381.821L292.103 382.693L288.215 388.298L280.21 399.865L263.424 424.09L114.719 419.444L2.58568 415.957C2.47173 415.32 2.37202 414.684 2.27944 414.039C0.577231 402.852 -0.174569 391.48 0.0360501 380.104L12.4708 372.311L15.3195 370.515L37.4899 356.568L56.9468 344.364L107.697 352.436L118.935 354.223L124.02 355.025L131.463 356.211L132.089 356.315L248.795 374.839L261.693 376.887L269.264 378.09L292.595 381.804L292.694 381.821Z" fill="#504F60"/>
<path d="M268.48 423.663L268.359 427.089L267.646 446.432L263.815 552.779L263.003 575.766L260.866 634.902L259.663 668.305L255.318 666.64C253.068 665.763 250.82 664.868 248.574 663.956L258.993 432.084L259.214 427.22L263.801 425.476L268.48 423.663Z" fill="#3F3D56"/>
<path d="M10.6685 423.41L10.348 432.363L9.87798 445.438C8.52008 441.306 7.27613 437.096 6.14613 432.807L6.0393 432.38C5.46956 430.201 4.94254 428.021 4.45825 425.755L10.6685 423.41Z" fill="#3F3D56"/>
<path d="M196.905 291.609C214.998 291.609 229.666 267.412 229.666 237.564C229.666 207.715 214.998 183.519 196.905 183.519C178.812 183.519 164.145 207.715 164.145 237.564C164.145 267.412 178.812 291.609 196.905 291.609Z" fill="#A1616A"/>
<path opacity="0.1" d="M196.905 291.609C214.998 291.609 229.666 267.412 229.666 237.564C229.666 207.715 214.998 183.519 196.905 183.519C178.812 183.519 164.145 207.715 164.145 237.564C164.145 267.412 178.812 291.609 196.905 291.609Z" fill="black"/>
<path d="M201.534 260.664C226.707 260.664 247.114 235.687 247.114 204.876C247.114 174.064 226.707 149.087 201.534 149.087C176.361 149.087 155.954 174.064 155.954 204.876C155.954 235.687 176.361 260.664 201.534 260.664Z" fill="#A1616A"/>
<path d="M202.439 118.891C199.656 119.163 196.893 119.678 194.17 120.434C186.963 122.578 180.731 127.338 174.663 132.01C171.943 134.111 169.144 136.299 167.456 139.385C164.422 144.92 165.597 151.963 163.895 158.109C163.012 161.264 161.388 164.097 160.014 167.035C156.232 175.089 154.252 183.937 152.308 192.698C151.909 194.511 151.795 196.969 153.412 197.666C154.343 197.903 155.311 197.769 156.175 197.283C161.282 195.217 167.77 194.624 171.558 198.817C175.347 203.01 175.027 210.445 179.535 213.636C184.698 217.323 192.76 212.869 197.446 217.219C199.455 219.084 200.181 222.074 201.826 224.323C205.658 229.553 213.029 229.3 219.161 228.246C222.679 227.635 226.995 227.226 229.131 230.25C230.157 231.68 230.449 233.641 231.638 234.931C233.775 237.268 237.685 236.082 239.771 233.685C241.858 231.288 242.855 228.045 244.593 225.352C247.976 220.121 253.923 217.271 257.412 212.102C260.332 207.743 261.215 202.286 262.013 197.021L264.983 177.504C266.186 169.589 267.283 160.942 263.644 153.968C262.348 151.458 260.489 149.296 259.371 146.698C258.623 144.955 258.203 143.115 257.334 141.468C256.304 139.752 255.073 138.23 253.68 136.953L246.651 129.831C244.248 127.256 241.678 124.924 238.967 122.857C228.932 115.701 213.905 117.583 202.439 118.891Z" fill="#464353"/>
<path d="M52.3101 262.599C50.6222 264.796 49.0625 267.167 47.2536 269.224C45.6623 270.956 43.9982 272.586 42.2683 274.106C39.4765 276.663 36.7465 279.31 34.0781 282.047C31.2943 284.741 28.7753 287.821 26.5717 291.226C22.7686 297.476 20.9668 305.251 17.4059 311.711C14.258 317.438 9.8211 321.962 6.62339 327.645C5.22055 330.035 4.17856 332.712 3.54675 335.552C3.07514 338.299 2.86247 341.104 2.9129 343.911C2.84881 348.514 2.79183 353.169 3.56099 357.675C4.33015 362.182 6.01803 366.61 8.9095 369.565C11.5944 372.311 15.0628 373.575 18.4599 374.621C20.2119 375.153 22.1063 375.65 23.7728 374.804C24.9923 374.05 26.0508 372.958 26.8637 371.614L35.531 359.41C41.3282 351.216 47.3533 342.848 55.3084 338.053C57.801 336.563 60.429 335.438 62.9288 333.991C73.5261 327.741 81.0183 314.945 83.924 300.997C84.6362 297.589 85.092 294.111 85.5549 290.633L86.8083 281.097C86.9046 280.618 86.9046 280.119 86.8083 279.641C86.6121 279.103 86.2962 278.644 85.8968 278.316C79.8596 272.348 74.2071 265.82 68.9895 258.79C67.7503 257.116 66.5894 254.824 65.1579 253.42C63.3632 251.677 63.4985 251.807 61.3406 253.42C58.021 255.993 54.9859 259.078 52.3101 262.599Z" fill="#A1616A"/>
<path d="M111.599 326.058C111.527 325.856 111.423 325.673 111.291 325.522C111.16 325.37 111.005 325.252 110.836 325.176C110.667 325.099 110.487 325.065 110.307 325.076C110.126 325.087 109.95 325.142 109.787 325.239C109.625 325.335 109.48 325.471 109.362 325.637C109.243 325.804 109.154 325.998 109.098 326.208C109.043 326.418 109.022 326.64 109.038 326.86C109.055 327.08 109.107 327.293 109.192 327.488L108.48 327.915L129.717 381.193L133.556 378.901L112.319 325.588L111.599 326.058Z" fill="#3F3D56"/>
<path opacity="0.04" d="M52.3101 262.599C50.6222 264.796 49.0625 267.167 47.2536 269.224C45.6623 270.956 43.9982 272.586 42.2683 274.106C39.4765 276.663 36.7465 279.31 34.0781 282.047C31.2943 284.741 28.7753 287.821 26.5717 291.226C22.7686 297.476 20.9668 305.251 17.4059 311.711C14.258 317.438 9.8211 321.962 6.62339 327.645C5.22055 330.035 4.17856 332.712 3.54675 335.552C3.07514 338.299 2.86247 341.104 2.9129 343.911C2.84881 348.514 2.79183 353.169 3.56099 357.675C4.33015 362.182 6.01803 366.61 8.9095 369.565C11.5944 372.311 15.0628 373.575 18.4599 374.621C20.2119 375.153 22.1063 375.65 23.7728 374.804C24.9923 374.05 26.0508 372.958 26.8637 371.614L35.531 359.41C41.3282 351.216 47.3533 342.848 55.3084 338.053C57.801 336.563 60.429 335.438 62.9288 333.991C73.5261 327.741 81.0183 314.945 83.924 300.997C84.6362 297.589 85.092 294.111 85.5549 290.633L86.8083 281.097C86.9046 280.618 86.9046 280.119 86.8083 279.641C86.6121 279.103 86.2962 278.644 85.8968 278.316C79.8596 272.348 74.2071 265.82 68.9895 258.79C67.7503 257.116 66.5894 254.824 65.1579 253.42C63.3632 251.677 63.4985 251.807 61.3406 253.42C58.021 255.993 54.9859 259.078 52.3101 262.599Z" fill="black"/>
<path d="M297.829 360.788C297.758 366.349 297.58 372.076 295.692 377.149C294.88 379.346 293.62 381.508 291.733 382.231C290.59 382.554 289.408 382.608 288.25 382.388C274.278 380.885 260.198 382.252 246.594 386.433C250.226 377.542 248.14 366.881 249.144 357.013C249.422 354.32 249.927 351.67 250.12 348.967C250.832 339.379 247.477 330.069 245.939 320.602C244.604 312.408 244.604 303.971 245.939 295.776C246.201 293.667 246.793 291.639 247.684 289.805C248.727 288.021 250.098 286.56 251.686 285.543C257.455 281.524 264.256 281.062 270.737 281.594C275.103 281.951 283.856 281.446 287.495 284.732C291.476 288.332 292.737 300.423 293.812 306.01C295.422 314.58 296.517 323.282 297.088 332.048C297.786 341.602 297.936 351.199 297.829 360.788Z" fill="#A1616A"/>
<path d="M42.7168 380.087L68.3555 401.008L183.73 395.777L107.526 380.087H42.7168Z" fill="white"/>
<path d="M76.5242 213.862C72.3152 218.404 68.7471 223.756 64.7589 228.594C59.2893 235.236 53.0719 240.885 46.8831 246.507C49.1021 247.266 51.1219 248.718 52.7449 250.72C54.3679 252.721 55.5383 255.205 56.1415 257.926C56.4121 259.208 56.5474 260.542 56.8537 261.797C57.5658 264.769 59.1326 267.332 60.8134 269.642C68.035 279.606 78.1409 286.98 82.3997 299.28C82.5387 299.878 82.8402 300.401 83.2544 300.762C83.6009 300.949 83.9858 301.004 84.3582 300.919C88.2112 300.422 91.1596 296.621 93.6167 292.925C98.7444 285.08 103.196 276.415 105.724 266.844C108.252 257.273 108.658 246.69 105.902 237.206C104.527 232.482 102.405 228.14 100.297 223.843C98.45 220.083 96.6078 216.329 94.7704 212.581C93.8089 210.602 92.584 206.583 90.6967 205.607C86.623 203.463 79.1379 210.663 76.5242 213.862Z" fill="#6C63FF"/>
<path d="M286.291 270.2L292.352 287.634C285.754 284.812 278.703 283.954 271.78 285.128C264.857 286.303 258.263 289.478 252.541 294.39C249.087 297.415 245.918 301.215 244.358 306.044C243.588 306.224 242.793 306.133 242.063 305.783C241.334 305.433 240.7 304.837 240.234 304.066C239.323 302.501 238.794 300.65 238.71 298.731C238.148 292.036 240.22 285.472 242.271 279.214C243.226 276.285 244.208 273.295 245.903 270.915C247.598 268.535 249.849 266.966 252.099 265.484C259.279 260.624 266.799 256.558 274.569 253.333C277.845 252.034 281.278 252.06 283.115 255.808C285.245 260.28 284.625 265.441 286.291 270.2Z" fill="#6C63FF"/>
<path d="M42.8665 322.511C44.3834 323.993 45.7152 325.745 47.2749 327.157C48.9243 328.559 50.6796 329.765 52.5166 330.757L59.5387 334.889C61.7148 336.273 63.9918 337.406 66.3401 338.271C69.3455 339.256 72.5005 339.352 75.5202 340.267C79.3304 341.418 82.813 343.815 86.5662 345.201C90.3194 346.587 94.7136 346.814 97.8472 343.929C99.8057 342.124 101.287 339.143 103.716 338.698C105.282 338.446 106.792 339.37 108.188 340.267L126.463 352.027C128.927 353.613 131.534 355.374 132.823 358.399C134.112 361.424 133.243 366.017 130.529 366.802C129.584 366.935 128.633 367.002 127.681 367.003C126.741 367.142 125.715 367.822 125.587 368.981C125.582 369.701 125.737 370.409 126.035 371.03C126.854 373.331 127.097 376.086 126.142 378.317C125.188 380.549 122.845 381.935 120.972 380.932C121.292 384.306 118.294 386.668 115.623 387.566C108.886 389.824 101.743 388.438 94.856 387.008C92.1497 386.45 89.4007 385.875 86.9365 384.393C85.7543 383.687 84.6575 382.78 83.461 382.126C80.1779 380.339 76.446 380.575 72.8566 380.653C56.2556 381.011 39.7969 377.245 23.4737 373.497C20.4469 372.799 17.3346 372.058 14.7494 370.01C9.76408 366.035 7.9124 357.876 8.73141 350.658C9.55043 343.44 12.5416 336.903 15.4829 330.557L19.2931 322.337C19.7912 321.077 20.4884 319.952 21.3442 319.024C26.9491 313.785 38.0663 317.786 42.8665 322.511Z" fill="#A1616A"/>
<path opacity="0.04" d="M42.8665 322.511C44.3834 323.993 45.7152 325.745 47.2749 327.157C48.9243 328.559 50.6796 329.765 52.5166 330.757L59.5387 334.889C61.7148 336.273 63.9918 337.406 66.3401 338.271C69.3455 339.256 72.5005 339.352 75.5202 340.267C79.3304 341.418 82.813 343.815 86.5662 345.201C90.3194 346.587 94.7136 346.814 97.8472 343.929C99.8057 342.124 101.287 339.143 103.716 338.698C105.282 338.446 106.792 339.37 108.188 340.267L126.463 352.027C128.927 353.613 131.534 355.374 132.823 358.399C134.112 361.424 133.243 366.017 130.529 366.802C129.584 366.935 128.633 367.002 127.681 367.003C126.741 367.142 125.715 367.822 125.587 368.981C125.582 369.701 125.737 370.409 126.035 371.03C126.854 373.331 127.097 376.086 126.142 378.317C125.188 380.549 122.845 381.935 120.972 380.932C121.292 384.306 118.294 386.668 115.623 387.566C108.886 389.824 101.743 388.438 94.856 387.008C92.1497 386.45 89.4007 385.875 86.9365 384.393C85.7543 383.687 84.6575 382.78 83.461 382.126C80.1779 380.339 76.446 380.575 72.8566 380.653C56.2556 381.011 39.7969 377.245 23.4737 373.497C20.4469 372.799 17.3346 372.058 14.7494 370.01C9.76408 366.035 7.9124 357.876 8.73141 350.658C9.55043 343.44 12.5416 336.903 15.4829 330.557L19.2931 322.337C19.7912 321.077 20.4884 319.952 21.3442 319.024C26.9491 313.785 38.0663 317.786 42.8665 322.511Z" fill="black"/>
<path d="M260.268 337.574C256.558 339.718 252.299 339.927 248.425 341.575C244.55 343.222 241.26 346.186 237.706 348.601C228.448 354.929 217.765 357.318 207.275 359.593C200.915 360.987 194.455 362.382 188.046 362.051C179.371 361.598 171.039 358.059 162.635 355.391C154.231 352.724 145.265 350.928 136.939 353.927C132.592 355.547 128.617 358.398 125.338 362.25C122.059 366.101 119.568 370.844 118.066 376.094C116.321 382.362 116.079 389.117 116.414 395.725C118.166 397.302 120.616 395.114 121.57 392.717C122.524 390.32 123.044 387.383 124.896 385.988C128.108 387.321 128.891 392.56 131.541 395.149C133.193 396.771 135.401 397.198 137.502 397.564L148.327 399.447C150.934 399.9 153.96 400.205 155.848 397.956C156.766 396.867 157.272 395.341 158.112 394.173C159.836 391.837 162.713 391.436 165.277 391.75C173.282 392.726 180.788 399.081 188.736 397.573C191.471 397.058 194.014 395.629 196.62 394.504C212.068 387.827 229.231 391.889 245.305 388.062C251.437 386.607 257.341 384.026 263.174 381.307C266.343 379.834 269.548 378.291 272.254 375.798C274.818 373.385 276.84 370.215 278.131 366.585C279.421 362.955 279.938 358.984 279.633 355.043C279.036 349.036 276.588 343.536 272.788 339.666C271.535 338.358 269.89 335.856 268.387 335.037C265.517 333.494 262.704 336.17 260.268 337.574Z" fill="#A1616A"/>
<g opacity="0.1">
<path opacity="0.1" d="M239.458 226.214C238.269 224.924 237.977 222.963 236.951 221.533C234.815 218.509 230.499 218.918 226.981 219.528C220.849 220.583 213.449 220.827 209.646 215.606C208.001 213.357 207.274 210.376 205.266 208.501C200.58 204.143 192.518 208.606 187.355 204.919C182.846 201.702 183.138 194.24 179.378 190.1C175.618 185.959 169.101 186.5 163.995 188.566C163.131 189.052 162.163 189.186 161.232 188.949C159.615 188.252 159.729 185.794 160.128 183.981C162.072 175.22 164.052 166.372 167.834 158.318C169.208 155.38 170.832 152.547 171.715 149.392C173.26 143.865 172.47 137.615 174.5 132.385C172.32 134.128 170.227 136.028 168.88 138.487C165.847 144.022 167.022 151.065 165.32 157.211C164.436 160.366 162.813 163.199 161.438 166.137C157.656 174.191 155.677 183.039 153.732 191.8C153.333 193.613 153.22 196.071 154.836 196.768C155.767 197.005 156.735 196.871 157.599 196.385C162.706 194.319 169.194 193.726 172.983 197.919C176.771 202.112 176.451 209.548 180.959 212.738C186.123 216.425 194.184 211.971 198.871 216.321C200.879 218.186 201.605 221.176 203.251 223.425C207.082 228.655 214.453 228.402 220.585 227.348C224.103 226.737 228.419 226.328 230.556 229.352C231.581 230.782 231.873 232.743 233.063 234.034C235.199 236.37 239.109 235.184 241.196 232.787C242.534 231.082 243.679 229.164 244.6 227.086C242.748 227.775 240.776 227.67 239.458 226.214Z" fill="black"/>
<path opacity="0.1" d="M252.434 216.626C251.975 217.349 251.55 218.103 251.159 218.884C253.894 216.495 256.793 214.264 258.837 211.221C259.367 210.434 259.844 209.594 260.261 208.711C257.419 211.204 254.457 213.497 252.434 216.626Z" fill="black"/>
</g>
<path d="M396.317 389.239L398.454 639.417L408.424 637.673L406.288 389.239H396.317Z" fill="#3F3D56"/>
<path d="M456.141 434.567L458.277 684.745L468.248 683.001L466.111 434.567H456.141Z" fill="#3F3D56"/>
<path d="M642.398 560.947L642.356 556.144V553.285L641.978 509.281L641.387 440.487L641.287 434.551H631.317L631.367 440.269L631.68 477.116L631.815 493.068L631.929 505.986L632.115 528.319L632.229 541.491V542.885L632.378 560.197L632.506 575.461L633.318 574.362C634.624 572.578 635.901 570.765 637.15 568.923L642.398 560.947Z" fill="#3F3D56"/>
<path d="M445.102 475.102L439.404 485.527L445.102 533.026L493.53 549.248H571.871L618.875 552.726L641.266 533.967L637.392 501.749L620.299 475.102H445.102Z" fill="#6C63FF"/>
<path d="M439.404 485.527L436.555 514.485C436.555 514.485 421.6 571.259 541.959 567.781C662.318 564.303 641.665 552.718 641.665 552.718L640.953 519.123C640.953 519.123 645.148 535.022 583.978 532.869C522.808 530.716 465.755 523.76 465.755 523.76C465.755 523.76 444.39 528.389 439.404 485.527Z" fill="#3F3D56"/>
<path d="M539.68 225.971C532.814 229.797 527.615 237.216 524.133 245.418C520.65 253.621 518.692 262.626 516.762 271.569C514.725 281.001 512.681 290.459 511.627 300.126C509.747 317.316 511.157 335.386 517.609 350.824C524.062 366.262 535.984 378.718 549.942 381.691C555.334 382.85 560.874 382.615 566.323 381.926C576.17 380.65 585.871 378.033 595.245 374.125C605.037 370.071 615.228 363.83 619.587 352.332C622.115 345.664 622.329 338.062 622.208 330.723C621.872 310.718 619.403 290.853 614.865 271.63C613.548 266.051 612.016 260.429 609.225 255.73C606.433 251.032 602.616 247.589 598.72 244.398C582.062 230.669 560.169 214.569 539.68 225.971Z" fill="#FBBEBE"/>
<path opacity="0.05" d="M539.68 225.971C532.814 229.797 527.615 237.216 524.133 245.418C520.65 253.621 518.692 262.626 516.762 271.569C514.725 281.001 512.681 290.459 511.627 300.126C509.747 317.316 511.157 335.386 517.609 350.824C524.062 366.262 535.984 378.718 549.942 381.691C555.334 382.85 560.874 382.615 566.323 381.926C576.17 380.65 585.871 378.033 595.245 374.125C605.037 370.071 615.228 363.83 619.587 352.332C622.115 345.664 622.329 338.062 622.208 330.723C621.872 310.718 619.403 290.853 614.865 271.63C613.548 266.051 612.016 260.429 609.225 255.73C606.433 251.032 602.616 247.589 598.72 244.398C582.062 230.669 560.169 214.569 539.68 225.971Z" fill="black"/>
<path d="M531.967 335.691C533.954 339.034 536.357 341.976 539.089 344.408C545.869 350.144 554.572 350.92 562.805 351.233C569.414 351.477 576.991 351.015 581.136 344.704C583.002 341.863 583.842 338.236 584.597 334.706C589.256 313.028 592.565 290.948 594.497 268.657L613.355 268.736C621.517 311.51 620.848 355.975 620.135 399.9L619.103 463.953L606.953 462.375C578.102 458.635 549.209 454.896 520.202 454.251C503.205 453.868 486.205 454.555 469.266 456.308L495.724 360.02C499.157 347.503 502.625 334.819 503.43 321.665C504.59 302.584 500.218 282.439 506.278 264.787C506.763 263.366 507.375 261.893 508.479 261.152C509.583 260.411 510.979 260.594 512.246 260.795C514.639 261.187 521.954 260.795 523.691 262.669C526.255 265.389 524.56 265.798 523.656 270.183C522.039 278.028 520.508 285.289 520.529 293.466C520.551 308.311 524.311 323.984 531.967 335.691Z" fill="#6C63FF"/>
<path d="M642.398 560.947C645.575 555.786 648.568 550.443 651.379 544.916C649.955 541.185 648.388 537.542 647.142 533.732C645.233 527.892 644.136 521.703 643.054 515.557C642.683 513.465 642.315 511.373 641.95 509.281C637.962 486.521 634.215 463.438 633.439 440.365C633.368 438.447 633.323 436.529 633.304 434.611C633.304 434.332 633.304 434.062 633.304 433.74C633.304 431.639 633.304 429.538 633.304 427.446C633.389 422.216 633.66 416.942 634.151 411.694C634.244 410.666 634.351 409.637 634.465 408.609C634.465 408.382 634.507 408.164 634.536 407.937L682.965 405.776L687.038 405.593C689.837 405.47 692.8 405.279 695.107 403.335C698.989 400.075 699.444 393.389 699.38 387.644C699.145 373.125 697.8 358.664 695.364 344.452C693.526 333.765 690.905 322.842 685.023 314.631C680.194 307.884 673.2 302.976 670.686 294.582C669.754 291.461 669.518 288.035 668.308 285.054C667.097 282.073 665.096 279.885 663.209 277.584C656.566 269.528 651.056 260.185 646.899 249.933C644.015 242.82 640.889 234.975 637.121 230.059C636.936 229.806 636.751 229.57 636.559 229.344C633.354 225.465 629.686 223.765 625.342 226.406C624.56 226.886 623.817 227.452 623.12 228.097C621.571 229.545 620.155 231.194 618.896 233.014C614.508 239.189 610.658 245.909 607.409 253.063C605.124 258.099 603.162 263.345 601.54 268.753C600.26 273.026 599.202 277.393 598.371 281.829C597.759 285.115 597.274 288.436 596.89 291.766C595.465 304.284 595.465 317.045 595.665 329.72C595.879 341.366 596.299 353.038 597.16 364.64C597.374 367.447 597.611 370.251 597.873 373.052C598.395 378.59 599.041 384.111 599.81 389.614C600.116 391.715 600.429 393.816 600.778 395.908C600.864 396.466 600.956 397.024 601.049 397.573L601.092 397.808C602.032 402.671 602.762 407.591 603.278 412.549C603.335 413.17 603.378 413.789 603.406 414.405C603.526 417.255 603.507 420.11 603.349 422.957C603.186 426.322 602.929 429.678 602.801 433.042C602.801 433.635 602.801 434.219 602.751 434.786C602.716 436.486 602.751 438.185 602.751 439.885C602.896 443.952 603.291 447.999 603.933 451.993C605.135 459.422 607.21 466.598 610.094 473.297C610.364 473.925 610.642 474.544 610.92 475.154C614.531 483.052 619.089 490.295 622.429 498.376C625.31 505.648 627.462 513.319 628.838 521.223C629.313 523.833 629.764 526.448 630.192 529.069C630.854 533.253 631.445 537.472 632.05 541.691C632.107 542.109 632.171 542.562 632.236 542.946C633.04 548.542 633.888 554.112 634.977 559.578C635.611 562.76 636.324 565.898 637.157 568.984L642.398 560.947Z" fill="#464353"/>
<path d="M632.884 492.239C632.884 493.024 632.841 493.808 632.812 494.602C632.685 498.426 632.398 502.241 631.951 506.029C631.36 511.201 630.327 516.282 628.867 521.188C627.899 524.415 626.668 527.513 625.192 530.437C623.883 533.033 622.35 535.45 620.62 537.646C616.347 543.085 610.193 544.82 604.239 547.113C601.5 548.083 598.853 549.407 596.341 551.061C595.893 551.366 595.451 551.698 595.024 552.046L587.574 558.087C585.253 559.961 582.881 561.905 581.286 564.686C581.024 565.159 580.787 565.651 580.574 566.159C579.565 568.719 578.828 571.426 578.38 574.214C574.506 593.966 570.624 613.737 567.968 633.786C567.79 635.111 567.619 636.444 567.434 637.778L567.37 638.196C567.337 638.097 567.299 638.001 567.256 637.909C548.198 652.013 528.434 664.74 508.073 674.93L503.65 629.601C503.189 625.917 503.037 622.184 503.195 618.461C503.615 612.595 505.566 607.033 506.093 601.184C506.592 595.458 505.708 589.678 503.551 584.561C502.71 582.573 501.656 580.621 501.464 578.398C501.272 576.175 502.319 574.144 504.142 573.917C505.566 571.982 505.68 569.341 505.26 566.726C505.037 565.361 504.703 564.026 504.263 562.742C503.052 559.098 501.521 555.132 502.561 551.41C502.836 550.735 502.959 549.983 502.917 549.231C502.924 549.185 502.924 549.137 502.917 549.091C502.675 548.115 501.727 547.688 501.236 546.86C500.31 545.317 501.236 543.216 501.806 541.438C502.36 539.527 502.681 537.527 502.76 535.502C502.838 534.377 502.895 533.244 502.995 532.128C503.134 530.618 503.355 529.121 503.657 527.648C505.388 519.297 509.548 512.007 515.359 507.145C518.129 504.861 521.213 503.196 524.04 501.043C526.937 498.654 529.701 496.033 532.316 493.198C538.588 486.806 545.109 480.779 551.88 475.119C559.16 469.034 566.701 463.429 574.47 458.33C576.132 457.232 577.794 456.162 579.455 455.122C581.264 453.96 583.085 452.859 584.918 451.819C590.786 448.393 597.445 449.674 603.933 451.958C606.654 452.908 609.339 454.041 611.931 455.07C614.463 456.077 616.898 457.416 619.195 459.062C624.943 463.194 629.693 469.296 631.666 477.002C631.669 477.051 631.669 477.101 631.666 477.15C632.919 481.979 632.998 487.157 632.884 492.239Z" fill="#F86D70"/>
<path opacity="0.1" d="M632.884 492.239C632.884 493.024 632.841 493.808 632.812 494.602C632.685 498.426 632.398 502.241 631.951 506.029C631.36 511.201 630.327 516.282 628.867 521.188C627.899 524.415 626.668 527.513 625.192 530.437C623.883 533.033 622.35 535.45 620.62 537.646C616.347 543.085 610.193 544.82 604.239 547.113C601.5 548.083 598.853 549.407 596.341 551.061C595.893 551.366 595.451 551.698 595.024 552.046L587.574 558.087C585.253 559.961 582.881 561.905 581.286 564.686C581.024 565.159 580.787 565.651 580.574 566.159C579.565 568.719 578.828 571.426 578.38 574.214C574.506 593.966 570.624 613.737 567.968 633.786C567.79 635.111 567.619 636.444 567.434 637.778L567.37 638.196C567.337 638.097 567.299 638.001 567.256 637.909C548.198 652.013 528.434 664.74 508.073 674.93L503.65 629.601C503.189 625.917 503.037 622.184 503.195 618.461C503.615 612.595 505.566 607.033 506.093 601.184C506.592 595.458 505.708 589.678 503.551 584.561C502.71 582.573 501.656 580.621 501.464 578.398C501.272 576.175 502.319 574.144 504.142 573.917C505.566 571.982 505.68 569.341 505.26 566.726C505.037 565.361 504.703 564.026 504.263 562.742C503.052 559.098 501.521 555.132 502.561 551.41C502.836 550.735 502.959 549.983 502.917 549.231C502.924 549.185 502.924 549.137 502.917 549.091C502.675 548.115 501.727 547.688 501.236 546.86C500.31 545.317 501.236 543.216 501.806 541.438C502.36 539.527 502.681 537.527 502.76 535.502C502.838 534.377 502.895 533.244 502.995 532.128C503.134 530.618 503.355 529.121 503.657 527.648C505.388 519.297 509.548 512.007 515.359 507.145C518.129 504.861 521.213 503.196 524.04 501.043C526.937 498.654 529.701 496.033 532.316 493.198C538.588 486.806 545.109 480.779 551.88 475.119C559.16 469.034 566.701 463.429 574.47 458.33C576.132 457.232 577.794 456.162 579.455 455.122C581.264 453.96 583.085 452.859 584.918 451.819C590.786 448.393 597.445 449.674 603.933 451.958C606.654 452.908 609.339 454.041 611.931 455.07C614.463 456.077 616.898 457.416 619.195 459.062C624.943 463.194 629.693 469.296 631.666 477.002C631.669 477.051 631.669 477.101 631.666 477.15C632.919 481.979 632.998 487.157 632.884 492.239Z" fill="black"/>
<path d="M565.262 347.851C565.19 347.649 565.085 347.466 564.954 347.315C564.822 347.163 564.668 347.045 564.498 346.969C564.329 346.892 564.149 346.858 563.969 346.869C563.789 346.88 563.612 346.935 563.45 347.032C563.287 347.128 563.143 347.264 563.024 347.43C562.906 347.597 562.816 347.791 562.76 348.001C562.705 348.211 562.684 348.433 562.701 348.653C562.717 348.873 562.769 349.086 562.854 349.281L562.142 349.708L583.38 402.986L587.218 400.694L565.981 347.381L565.262 347.851Z" fill="#3F3D56"/>
<path d="M591.812 292.045C616.985 292.045 637.392 267.068 637.392 236.256C637.392 205.445 616.985 180.468 591.812 180.468C566.639 180.468 546.232 205.445 546.232 236.256C546.232 267.068 566.639 292.045 591.812 292.045Z" fill="#FBBEBE"/>
<path d="M651.97 201.72C651.757 197.285 651.218 192.883 650.361 188.566C647.683 174.47 642.79 160.593 634.365 150.473C633.846 147.998 633.225 145.557 632.506 143.159C632.493 143.1 632.476 143.041 632.456 142.985C629.943 134.536 626.31 126.652 621.702 119.649C619.032 115.587 615.57 111.577 611.312 111.421C610.115 111.368 608.847 111.621 607.751 110.95C606.944 110.312 606.265 109.46 605.764 108.457C603.655 105.195 600.857 102.7 597.674 101.242C594.491 99.7841 591.043 99.4183 587.703 100.184L587.261 100.298C587.012 100.359 586.763 100.428 586.549 100.507C586.335 100.585 585.951 100.716 585.652 100.829C585.979 101.492 586.3 102.163 586.613 102.843C587.458 104.685 588.242 106.568 588.963 108.492C589.561 110.096 590.115 111.726 590.623 113.382C583.33 114.402 577.39 120.739 571.963 126.771L559.187 140.962C559.164 140.986 559.142 141.013 559.123 141.041L558.752 141.477C558.66 141.59 558.567 141.703 558.482 141.825C558.447 141.862 558.416 141.903 558.389 141.947C558.282 142.087 558.183 142.235 558.083 142.383C557.905 142.658 557.745 142.949 557.606 143.255C557.536 143.386 557.474 143.523 557.42 143.665C557.401 143.706 557.384 143.75 557.371 143.795C557.324 143.914 557.284 144.037 557.25 144.162C557.246 144.179 557.246 144.197 557.25 144.214C557.23 144.285 557.213 144.358 557.2 144.432C557.054 145.045 557.097 145.703 557.321 146.28L565.746 146.393H566.736C566.779 147.77 566.814 149.156 566.857 150.534C565.52 151.758 564.236 153.068 563.011 154.456C561.675 155.97 560.421 157.589 559.258 159.303C551.659 170.539 547.692 185.053 547.293 199.663C547.293 200.116 547.293 200.534 547.293 201.005C547.293 202.339 547.293 203.672 547.293 204.997C547.293 205.869 547.357 206.741 547.414 207.612C547.418 208.748 547.663 209.863 548.126 210.846C548.187 210.956 548.254 211.061 548.326 211.16C548.753 211.728 549.266 212.19 549.836 212.52L550.448 212.886C550.754 213.069 551.046 213.244 551.331 213.444C554.016 215.301 555.604 218.884 558.047 221.185C558.19 221.316 558.332 221.446 558.474 221.56L558.795 221.821L558.994 221.978L559.265 222.17C559.442 222.301 559.626 222.42 559.813 222.527L560.155 222.736H560.212C560.497 222.893 560.782 223.042 561.074 223.172L561.48 223.347L561.601 223.399C561.715 223.442 561.836 223.495 561.957 223.53C562.199 223.617 562.437 223.695 562.669 223.765L563.381 223.957C563.659 224.018 563.944 224.079 564.229 224.122L564.649 224.192L565.076 224.244C565.755 224.32 566.439 224.364 567.128 224.375C569.288 224.359 571.446 224.175 573.587 223.826L591.762 221.211C595.886 220.627 600.095 220.043 604.161 221.071C607.608 221.943 610.785 223.948 614.132 225.369C614.887 225.691 615.642 225.988 616.404 226.241C616.681 226.337 616.966 226.441 617.251 226.528L617.643 226.65L618.554 226.921C618.882 227.016 619.21 227.112 619.537 227.191C620 227.313 620.456 227.417 620.919 227.522C621.232 227.601 621.553 227.662 621.873 227.731H621.937L622.849 227.906H623.07L623.746 228.019C624.074 228.08 624.402 228.132 624.736 228.176C625.463 228.286 626.189 228.382 626.916 228.463C628.091 228.603 629.273 228.708 630.476 228.795L631.659 228.882L632.841 228.952L636.402 229.143H636.559H637.057C638.537 229.27 640.025 229.176 641.487 228.864C641.743 228.803 641.993 228.734 642.242 228.647C642.491 228.559 642.698 228.472 642.954 228.368C645.625 227.112 647.576 224.227 648.929 221.141C649.214 220.487 649.478 219.834 649.72 219.162C649.962 218.491 650.183 217.811 650.382 217.131C650.631 216.26 650.845 215.432 651.03 214.56C651.087 214.325 651.137 214.089 651.18 213.845C651.222 213.601 651.322 213.122 651.379 212.755C651.557 211.753 651.692 210.742 651.792 209.722C651.792 209.399 651.856 209.068 651.885 208.746C651.949 207.874 651.999 207.063 652.027 206.209C652.027 205.564 652.027 204.91 652.027 204.256C652.02 203.55 651.97 202.618 651.97 201.72ZM633.71 149.679C633.133 149.017 632.542 148.381 631.944 147.779C632.609 148.293 633.203 148.935 633.703 149.679H633.71Z" fill="#464353"/>
<path d="M504.334 233.188C498.971 232.377 493.651 229.5 488.36 230.913C485.048 231.784 482.199 234.303 479.55 236.892C469.691 246.564 461.307 258.295 454.787 271.542C453.682 273.523 452.905 275.75 452.501 278.098C452.159 280.817 452.765 283.581 453.484 286.187C458.355 303.804 468.775 318.518 473.518 336.188C478.503 354.772 476.773 375.083 473.098 394.121C468.542 417.623 461.139 440.159 451.134 460.98C449.775 464.076 448.074 466.927 446.077 469.453C443.485 472.504 440.002 474.683 438.464 478.675C437.752 480.419 437.545 482.406 437.04 484.272C435.615 489.502 432.168 493.982 431.834 499.5C431.584 503.711 433.215 507.694 434.205 511.704C435.875 518.593 435.697 525.955 433.7 532.712C430.089 544.829 420.645 555.847 423.387 568.303C429.505 566.15 436.285 563.352 439.169 556.405C440.188 553.947 440.693 551.018 442.41 549.222C445.835 545.657 451.668 548.882 455.307 545.604C458.056 543.111 458.156 538.003 456.931 534.081C455.706 530.158 453.598 526.706 452.658 522.67C451.02 515.391 453.641 507.694 453.157 500.171C452.929 496.685 452.053 493.346 451.989 489.877C451.867 483.138 454.916 476.801 458.968 472.225C463.02 467.648 468.027 464.615 472.955 461.625L491.586 450.293C498.345 446.196 505.751 441.201 507.966 432.379C508.807 429.076 508.814 425.554 508.856 422.102C509.49 369.356 520.287 317.673 531.02 266.582C532.686 258.667 534.381 250.718 536.86 243.116C539.338 235.515 544.188 229.413 546.659 222.352C532.323 220.295 519.226 235.472 504.334 233.188Z" fill="#464353"/>
<path d="M607.038 564.093C608.684 576.297 609.688 588.763 610.471 601.167C597.652 614.173 583.85 625.487 569.827 635.982C569.029 636.584 568.224 637.177 567.42 637.726L567.355 638.144C567.323 638.045 567.285 637.949 567.242 637.857C566.154 634.979 564.251 632.682 561.886 631.389C556.63 617.877 551.379 604.366 546.132 590.855C543.284 583.559 540.435 576.193 539.011 568.321C539.011 568.156 538.946 567.981 538.925 567.816C537.843 561.714 537.593 555.377 536.874 549.196C536.51 545.656 535.858 542.17 534.93 538.788C534.075 535.781 532.9 532.861 531.86 529.923C530.578 526.297 529.503 522.627 529.453 518.713C529.453 517.466 529.517 516.098 529.019 515.052C528.486 514.151 527.827 513.372 527.074 512.75C526.134 511.73 525.421 510.434 525.003 508.984C524.584 507.534 524.474 505.977 524.681 504.461C520.408 504.731 518.001 510.353 516.285 515.121C514.724 519.785 512.675 524.18 510.188 528.197C508.376 531.066 506.071 533.414 503.437 535.075C503.202 535.214 502.967 535.354 502.725 535.476C496.778 538.684 489.834 537.55 483.389 536.103C477.755 534.839 471.93 533.27 467.4 528.981L466.916 528.511C465.575 527.147 464.379 525.583 463.355 523.856C459.559 517.51 457.878 509.15 456.945 501.192C456.86 500.442 456.774 499.692 456.696 498.943C456.049 493.319 455.87 487.63 456.162 481.962C456.247 480.567 456.368 479.173 456.518 477.787C456.618 476.915 456.725 475.973 456.846 475.067C456.842 475.041 456.842 475.014 456.846 474.988C457.031 473.55 457.23 472.103 457.43 470.63C458.142 465.687 458.854 460.614 460.991 456.36C462.397 453.713 464.171 451.389 466.232 449.491C467.001 448.75 467.792 448.044 468.59 447.364C469.886 446.266 471.218 445.22 472.571 444.235C475.975 441.741 479.549 439.612 483.253 437.872C484.137 437.453 485.034 437.061 485.931 436.686C489.419 435.167 493.174 434.804 496.814 435.631C500.039 436.203 503.298 436.436 506.556 436.329C514.91 436.128 523.3 434.176 531.639 432.912C543.22 431.168 555.661 430.959 565.76 438.142C566.244 438.482 566.715 438.839 567.185 439.214C572.17 443.206 576.187 448.803 579.427 455.053C580.139 456.369 580.759 457.72 581.371 459.089C582.783 462.23 584.06 465.46 585.196 468.765C585.868 470.387 586.231 472.176 586.257 473.995C586.24 474.341 586.202 474.685 586.143 475.023C585.951 476.261 585.566 477.464 585.431 478.719C584.982 483.47 588.279 487.436 589.512 491.96C590.309 494.907 590.224 498.062 590.672 501.166C591.321 505.524 593.065 509.447 594.632 513.369C597.108 519.684 599.226 526.199 600.971 532.869C602.21 537.515 603.271 542.231 604.204 546.991C604.508 548.519 604.795 550.05 605.066 551.585C605.842 555.804 606.476 559.935 607.038 564.093Z" fill="#F86D70"/>
<path d="M682.972 435.004V441.106L682.053 441.088L681.027 441.071L669.575 440.897L641.359 440.443L633.439 440.321L631.388 440.286L619.502 440.103L602.751 439.833L567.213 439.267L505.545 438.29L483.289 437.942L474.358 437.802L466.14 437.671L461.019 437.584L456.169 437.506L420.211 436.939L410.24 436.782L408.068 436.747L406.658 432.293L396.41 399.944L394.536 394.034L395.961 387.061L402.371 392.291L406.316 392.892L471.274 402.777L483.467 404.634L509.319 408.574L534.645 412.427L544.573 413.935L603.321 422.879L619.737 425.38L633.325 427.446L681.64 434.803L682.972 435.004Z" fill="#3F3D56"/>
<path d="M395.961 387.061L408.78 428.03L682.972 435.004V390.547L395.961 387.061Z" fill="#504F60"/>
<path d="M410.205 432.389L412.341 682.566L422.312 680.823L420.175 432.389H410.205Z" fill="#3F3D56"/>
<path d="M682.053 441.079H681.027C679.367 456.677 676.62 472.072 672.816 487.096L669.575 440.896L669.44 438.926L681.419 437.235L681.818 437.183L682.053 441.079Z" fill="#3F3D56"/>
<path d="M643.089 411.468L538.754 414.083L506.35 401.007L593.236 394.905L643.089 411.468Z" fill="white"/>
<path d="M512.211 360.63C511.105 361.15 510.124 362.005 509.362 363.115C508.766 364.317 508.403 365.671 508.301 367.072L506.549 379.86C506.282 381.03 506.329 382.274 506.684 383.408C507.14 384.48 508.465 385.038 509.127 384.149C509.042 386.65 509.22 389.318 510.409 391.358C511.598 393.397 514.091 394.47 515.772 393.049C516.035 393.574 516.389 394.024 516.809 394.365C517.228 394.707 517.703 394.933 518.201 395.027C518.699 395.122 519.208 395.083 519.692 394.913C520.177 394.743 520.625 394.446 521.006 394.042C519.995 394.461 519.924 396.352 520.643 397.311C521.449 398.182 522.475 398.684 523.549 398.732C536.064 400.891 548.823 398.927 560.511 393.04C561.615 392.482 558.709 375.824 558.417 374.115C557.705 370.097 557.349 365.189 554.579 362.487C547.955 356.019 536.19 354.746 528.121 355.513C522.608 356.024 517.217 357.758 512.211 360.63Z" fill="#FBBEBE"/>
<path opacity="0.1" d="M618.369 362.565C592.61 363.167 566.316 363.681 541.731 354.241C544.079 365.379 543.917 377.089 541.261 388.123L661.706 400.327C666.812 400.842 687.985 403.77 692.964 402.297C697.942 400.824 651.194 381.978 653.081 376.146C658.273 360.081 675.665 350.667 663.137 350.065C647.327 349.298 634.301 362.199 618.369 362.565Z" fill="black"/>
<path d="M619.081 364.308C593.322 364.91 567.028 365.424 542.443 355.984C544.792 367.122 544.629 378.832 541.973 389.867L662.418 402.07C667.524 402.585 688.698 405.557 693.676 404.04C698.654 402.524 697.486 395.053 699.373 389.222C704.565 373.156 676.377 352.41 663.85 351.808C648.039 351.041 635.013 363.942 619.081 364.308Z" fill="#464353"/>
<path d="M578.124 366.732C579.23 367.25 580.211 368.105 580.972 369.216C581.568 370.42 581.933 371.773 582.041 373.174L583.793 385.962C584.056 387.132 584.009 388.374 583.657 389.509C583.202 390.582 581.87 391.139 581.215 390.25C581.293 392.752 581.122 395.419 579.933 397.459C578.743 399.499 576.251 400.571 574.563 399.15C574.299 399.676 573.945 400.125 573.526 400.467C573.106 400.809 572.631 401.035 572.133 401.129C571.635 401.224 571.126 401.184 570.642 401.014C570.158 400.844 569.709 400.547 569.328 400.144C570.339 400.562 570.418 402.454 569.698 403.413C568.89 404.283 567.861 404.785 566.786 404.834C554.273 406.993 541.516 405.028 529.83 399.142C528.726 398.584 531.625 381.926 531.924 380.217C532.636 376.199 532.992 371.291 535.763 368.589C542.379 362.121 554.151 360.848 562.221 361.615C567.731 362.126 573.12 363.86 578.124 366.732Z" fill="#FBBEBE"/>
<path d="M407.911 338.968C405.547 342.699 403.175 346.508 401.651 350.858C398.738 359.157 399.166 368.554 399.65 377.567C399.785 380.182 399.956 382.849 401.074 385.02C402.041 386.66 403.316 387.99 404.792 388.899C410.959 393.188 418.181 394.469 425.232 395.428C436.028 396.893 446.863 397.785 457.736 398.104C484.671 398.906 512.019 396.213 538.256 403.683C535.008 397.642 535.015 389.649 536.831 382.762C538.647 375.876 542.144 369.879 545.57 363.977C533.562 359.322 520.686 366.592 508.109 365.869C495.197 365.128 483.246 355.992 470.32 356.001C467.543 356.001 464.715 356.428 462.016 355.609C459.317 354.79 456.703 352.296 456.454 348.906C459.901 349.856 463.17 346.247 464.594 342.289C466.019 338.332 466.275 333.86 467.657 329.876C471.096 319.965 480.39 315.371 486.173 307.212C487.085 305.922 487.947 304.397 487.918 302.688C487.782 301.241 487.285 299.88 486.494 298.792C481.687 290.946 474.444 286.588 468.426 280.486C466.332 278.359 462.109 270.339 459.758 269.598C455.4 268.23 451.704 275.936 448.869 279.693C434.559 298.725 420.906 318.483 407.911 338.968Z" fill="#464353"/>
<path opacity="0.07" d="M551.118 336.755C552.923 338.393 554.527 340.34 555.882 342.534C556.557 343.636 557.038 344.898 557.294 346.24C557.551 347.581 557.577 348.973 557.371 350.327C557.15 347.801 557.61 345.255 558.681 343.079C559.752 340.902 561.375 339.214 563.303 338.272L551.118 336.755Z" fill="black"/>
<g opacity="0.1">
<path opacity="0.1" d="M590.615 108.161C589.778 105.436 588.812 102.773 587.724 100.185C587.02 100.35 586.326 100.568 585.644 100.838C586.866 103.322 587.967 105.893 588.942 108.535C589.49 108.361 590.046 108.239 590.615 108.161Z" fill="black"/>
<path opacity="0.1" d="M631.936 142.531C632.129 142.723 632.314 142.941 632.499 143.141C632.486 143.085 632.469 143.03 632.449 142.976C632.288 142.831 632.117 142.682 631.936 142.531Z" fill="black"/>
<path opacity="0.1" d="M565.732 146.367C566.102 146.01 566.444 145.635 566.843 145.286L566.729 141.146L559.123 141.05C557.89 142.436 556.58 144.423 557.307 146.28L565.732 146.367Z" fill="black"/>
<path opacity="0.1" d="M648.886 216.068C647.533 219.154 645.582 222.048 642.911 223.295C640.853 224.254 638.588 224.167 636.388 224.044C628.881 223.67 621.247 223.26 614.153 220.218C610.834 218.788 607.658 216.792 604.183 215.912C600.116 214.883 595.907 215.467 591.783 216.06L573.608 218.675C568.246 219.442 562.27 220.017 557.99 215.99C555.54 213.689 553.959 210.106 551.274 208.258C550.142 207.473 548.796 206.968 548.062 205.643C547.599 204.659 547.354 203.544 547.35 202.409C547.293 201.494 547.258 200.578 547.229 199.663C547.152 202.322 547.192 204.985 547.35 207.639C547.354 208.775 547.599 209.889 548.062 210.873C548.774 212.189 550.142 212.695 551.274 213.488C553.959 215.336 555.547 218.919 557.99 221.22C562.263 225.247 568.246 224.707 573.608 223.905L591.783 221.29C595.907 220.697 600.116 220.113 604.183 221.142C607.63 222.013 610.806 224.018 614.153 225.448C621.275 228.49 628.881 228.935 636.388 229.275C638.588 229.388 640.853 229.484 642.911 228.525C645.582 227.278 647.533 224.384 648.886 221.299C651.507 215.327 652.241 208.554 651.963 201.729C651.811 206.727 650.76 211.623 648.886 216.068Z" fill="black"/>
</g>
<path opacity="0.1" d="M590.409 113.766L600.38 125.098C600.38 125.098 591.833 120.739 590.409 113.766Z" fill="black"/>
</g>
<defs>
<clipPath id="clip0_201:171">
<rect width="700" height="700" fill="white"/>
</clipPath>
</defs>
</svg>
