<svg width="576" height="381" viewBox="0 0 576 381" fill="none" xmlns="http://www.w3.org/2000/svg">
<g clip-path="url(#clip0_201:485)">
<g opacity="0.7">
<path opacity="0.7" d="M271.944 175.757C271.917 174.98 271.898 174.212 271.889 173.453C271.796 168.494 272.399 163.541 273.685 158.682C273.886 157.984 274.108 157.303 274.379 156.637C278.075 152.132 282.465 144.008 282.854 136.153L333.774 75.83L307.516 27.3459L307.149 26.9378C305.845 22.331 300.768 8.39254 287.48 10.1375C273.359 11.9899 285.961 28.6506 288.95 32.35C289.325 32.8171 289.553 33.0749 289.553 33.0749L289.72 33.0319V33.0749H289.54L303.951 73.9561C302.627 76.587 288.853 103.396 274.004 112.378C273.859 98.3431 275.821 80.4421 276.619 73.7843C276.916 71.4335 276.682 69.0605 275.925 66.7721C271.813 54.5947 257.2 45.5905 239.771 45.5905C235.075 45.5893 230.419 46.2611 226.039 47.5718C218.766 49.7583 212.609 53.7169 208.496 58.8502C204.384 63.9834 202.54 70.0128 203.242 76.0286C204.144 83.8462 205.781 99.5673 205.899 112.056C190.162 102.805 175.535 73.2366 175.535 73.2366L190.044 33.0749C190.044 33.0749 208.007 12.2208 192.125 10.1375C178.739 8.38181 173.684 22.5351 172.428 27.0399L172.088 27.8667L145.824 75.3092L197.791 136.835C197.923 143.144 200.565 150.086 205.94 156.642C206.449 157.266 206.795 157.961 206.96 158.688C207.019 158.933 207.061 159.18 207.084 159.429C206.814 163.187 203.464 167.848 199.705 172.965C197.056 176.567 194.219 180.39 192.118 184.267C187.263 193.196 184.981 198.227 185.092 205.744C184.954 214.834 188.56 227.371 195.572 255.677C199.26 254.495 203.058 253.525 206.932 252.778C208.825 265.755 210.927 283.436 209.013 287.372C206.474 292.661 204.851 318.17 206.1 331.781C197.777 340.108 194.15 339.835 194.15 339.835C185.134 341.923 185.606 346.117 187.527 348.898C188.141 350.029 189.058 351.047 190.218 351.883C190.479 352.057 190.712 352.255 190.911 352.474C191.542 354.192 189.878 356.887 187.159 363.212C185.841 366.283 186.694 369.156 188.276 371.54C190.765 375.873 195.905 378.804 195.905 378.804C201.543 380.109 203.388 378.74 203.367 376.421C205.205 379.143 209.734 381.382 219.957 380.931C219.957 380.931 226.954 381.285 223.424 374.906C219.894 368.528 221.677 342.659 221.677 342.659C221.677 342.659 222.009 339.437 222.564 334.557L270.661 292.355L276.903 252.783C280.898 257.154 283.617 258.432 292.959 258.824C292.959 258.824 292.806 258.453 292.529 257.75H292.959C292.959 257.75 273.193 209.819 271.944 175.757ZM235.88 251.436C238.917 251.851 241.887 252.521 244.737 253.433L245.361 256.209L242.739 290.937C236.868 294.018 231.636 297.773 227.225 302.073C228.293 296.457 229.416 292.167 230.471 290.932C233.071 287.893 234.909 265.96 235.853 251.436H235.88ZM203.388 368.184C202.691 369.607 202.324 371.114 202.306 372.635C202.105 372.216 201.876 371.792 201.612 371.373C199.996 368.538 204.685 358.444 208.548 351.105C208.345 353.75 207.926 356.383 207.293 358.987L203.388 368.184Z" fill="url(#paint0_linear_201:485)"/>
</g>
<path d="M306.726 30.556C306.726 30.556 302.745 10.5342 287.494 12.5906C272.243 14.647 289.484 35.1789 289.484 35.1789L306.726 30.556Z" fill="#FDB797"/>
<path d="M176.742 30.556C176.742 30.556 180.723 10.5342 195.974 12.5906C211.225 14.647 193.984 35.1789 193.984 35.1789L176.742 30.556Z" fill="#FDB797"/>
<path d="M265.592 212.277H232.44V232.299H265.592V212.277Z" fill="#535461"/>
<path d="M277.056 75.2547C277.35 72.9417 277.135 70.6068 276.418 68.3499C275.155 64.5364 272.857 60.9747 269.679 57.9016C266.5 54.8285 262.513 52.3142 257.983 50.526C253.453 48.7378 248.482 47.7166 243.403 47.5301C238.323 47.3437 233.251 47.9964 228.522 49.4448C214.027 53.9013 205.295 65.429 206.648 77.4561C208.18 91.0617 211.898 128.974 205.954 130.654C237.781 121.929 253.697 121.414 277.562 130.654C271.806 124.013 275.835 85.6925 277.056 75.2547Z" fill="#F55F44"/>
<g opacity="0.1">
<path opacity="0.1" d="M271.82 85.3435C272.07 83.5145 271.884 81.6655 271.272 79.8883C267.887 70.417 255.958 63.4102 241.72 63.4102C237.883 63.404 234.074 63.9239 230.471 64.9458C218.126 68.468 210.684 77.5742 211.835 87.0777C213.139 97.8162 216.309 127.782 211.218 129.113C238.329 122.219 251.887 121.811 272.25 129.113C267.353 123.868 270.786 93.5691 271.82 85.3435Z" fill="black"/>
</g>
<path d="M208.014 237.427C208.014 237.427 215.143 279.307 212.175 285.573C209.207 291.838 207.563 327.093 210.497 335.812C213.43 344.532 210.497 356.049 210.497 356.049L206.724 365.118C206.724 365.118 199.594 378.723 222.675 377.676C222.675 377.676 229.389 378.025 226.032 371.77C222.675 365.515 224.354 340.022 224.354 340.022C224.354 340.022 228.966 293.621 232.745 289.084C236.525 284.547 238.62 237.448 238.62 237.448L208.014 237.427Z" fill="#FDB797"/>
<path opacity="0.1" d="M199.227 374.895C199.227 374.895 187.901 368.264 191.258 360.243C194.615 352.221 196.293 350.127 193.776 348.382C191.258 346.637 186.223 340.006 197.937 337.22C197.937 337.22 202.098 337.569 211.808 326.755C221.517 315.941 220.616 302.33 244.536 289.074L247.053 254.882L241.581 230.125L279.761 232.568L270.953 289.788L215.567 339.657C215.567 339.657 202.14 363.035 204.657 367.577C207.175 372.119 208.014 376.984 199.227 374.895Z" fill="black"/>
<path d="M199.622 375.593C199.622 375.593 188.297 368.962 191.653 360.941C195.01 352.919 196.688 350.825 194.171 349.08C191.653 347.335 186.618 340.704 198.332 337.917C198.332 337.917 202.493 338.266 212.203 327.453C221.912 316.639 221.011 303.028 244.931 289.771L247.449 255.58L241.997 230.807L280.177 233.25L271.355 290.459L215.983 340.355C215.983 340.355 202.556 363.732 205.073 368.275C207.591 372.817 208.437 377.682 199.622 375.593Z" fill="#FDB797"/>
<path opacity="0.1" d="M292.778 257.449C280.843 256.912 280.177 254.882 272.888 246.173C265.599 237.464 252.331 245.148 252.331 245.148L247.691 216.916L248.385 252.847C227.169 244.632 199.317 254.388 199.317 254.388C187.353 205.088 185.772 204.352 195.967 185.072C198.113 181.255 200.544 177.539 203.249 173.941C207.452 168.067 211.135 162.784 210.185 158.854C210.028 158.14 209.696 157.457 209.207 156.84C192.888 136.383 202.632 112.082 233.279 115.932C234.84 116.125 235.728 116.286 235.728 116.286H247.664C296.066 114.235 283.471 146.059 274.85 156.84C274.621 157.49 274.407 158.166 274.212 158.854C272.77 163.944 272.305 170.048 272.541 176.69C273.768 210.221 292.778 257.449 292.778 257.449Z" fill="black"/>
<path d="M292.779 256.434C280.843 255.897 280.177 253.868 272.888 245.159C265.599 236.45 252.997 244.085 252.997 244.085L247.691 215.853V251.784C226.476 243.569 199.289 253.325 199.289 253.325C187.353 204.047 185.779 203.316 195.974 184.025C198.12 180.208 200.551 176.492 203.256 172.894C207.459 167.02 211.142 161.737 210.192 157.807C210.035 157.093 209.703 156.41 209.214 155.793C192.895 135.337 202.639 111.035 233.287 114.885C234.847 115.079 235.735 115.24 235.735 115.24H247.671C296.073 113.189 283.478 145.012 274.857 155.793C274.629 156.443 274.414 157.12 274.219 157.807C272.777 162.897 272.312 169.002 272.548 175.643C273.769 209.185 292.779 256.434 292.779 256.434Z" fill="#F55F44"/>
<path d="M232.44 96.7744H251.007V119.132C251.007 120.413 250.349 121.643 249.178 122.549C248.008 123.455 246.42 123.964 244.765 123.964H238.717C237.062 123.964 235.474 123.455 234.303 122.549C233.133 121.643 232.475 120.413 232.475 119.132V96.7744H232.44Z" fill="#FDB797"/>
<path d="M281.987 137.903L331.922 77.268L306.725 29.5303L289.463 34.6847L303.39 75.2385C303.39 75.2385 283.499 116.512 265.592 116.152L281.987 137.903Z" fill="#F55F44"/>
<path opacity="0.1" d="M232.44 105.924C238.48 107.414 244.967 107.414 251.007 105.924V97.8057H232.44V105.924Z" fill="black"/>
<path d="M241.72 106.015C258.566 106.015 272.222 95.4425 272.222 82.401C272.222 69.3594 258.566 58.7871 241.72 58.7871C224.874 58.7871 211.218 69.3594 211.218 82.401C211.218 95.4425 224.874 106.015 241.72 106.015Z" fill="#FDB797"/>
<g opacity="0.1">
<path opacity="0.1" d="M217.848 62.3854C217.848 62.3854 222.488 84.9737 272.222 81.3764L270.232 68.0285L254.322 57.2363H235.756L217.848 62.3854Z" fill="black"/>
</g>
<path d="M217.848 61.8698C217.848 61.8698 222.488 84.4581 272.222 80.8607L270.232 67.5128L254.315 56.7314H235.756L217.848 61.8698Z" fill="#F55F44"/>
<path d="M272.888 85.9938C273.987 85.9938 274.878 84.501 274.878 82.6595C274.878 80.818 273.987 79.3252 272.888 79.3252C271.788 79.3252 270.897 80.818 270.897 82.6595C270.897 84.501 271.788 85.9938 272.888 85.9938Z" fill="#FDB797"/>
<path d="M211.218 85.9938C212.317 85.9938 213.208 84.501 213.208 82.6595C213.208 80.818 212.317 79.3252 211.218 79.3252C210.119 79.3252 209.228 80.818 209.228 82.6595C209.228 84.501 210.119 85.9938 211.218 85.9938Z" fill="#FDB797"/>
<path d="M201.453 137.393L151.518 76.7581L176.714 30.0459L193.956 35.1789L180.03 74.7071C180.03 74.7071 199.92 115.98 217.828 115.621L201.453 137.393Z" fill="#F55F44"/>
<g opacity="0.1">
<path opacity="0.1" d="M270.232 155.81C270.003 156.459 273.103 157.136 272.909 157.823C271.466 162.913 271.001 169.018 271.237 175.66C272.409 208.492 290.656 254.442 291.419 256.354L292.806 256.423C292.806 256.423 273.796 209.174 272.597 175.66C272.361 169.018 272.818 162.913 274.268 157.823C274.462 157.136 274.67 156.465 274.906 155.81H270.232Z" fill="black"/>
</g>
<path opacity="0.1" d="M272.569 176.174L203.249 173.425C207.452 167.551 211.135 162.268 210.185 158.338C210.185 158.338 230.471 169.076 274.212 158.338C272.791 163.428 272.326 169.533 272.569 176.174Z" fill="black"/>
<g opacity="0.1">
<path opacity="0.1" d="M197.971 184.041C200.117 180.224 202.549 176.508 205.254 172.911C209.456 167.037 213.139 161.753 212.189 157.823C212.023 157.104 217.446 156.835 216.496 156.835C214.492 156.835 211.19 155.81 209.214 155.81C208.271 155.81 210.032 157.104 210.192 157.823C211.114 161.753 207.417 167.037 203.256 172.911C200.551 176.508 198.12 180.224 195.974 184.041C185.779 203.333 187.353 204.063 199.289 253.341C199.289 253.341 199.948 253.105 201.134 252.74C189.344 204.063 187.818 203.279 197.971 184.041Z" fill="black"/>
</g>
<path d="M272.569 175.659L203.249 172.916C207.452 167.042 211.135 161.758 210.185 157.828C210.185 157.828 220.477 163.514 239.702 159.407C250.313 163.514 259.912 161.334 274.205 157.828C272.791 162.913 272.326 169.018 272.569 175.659Z" fill="#535461"/>
<path opacity="0.1" d="M201.605 137.586L204.588 134.762L210.885 135.019C209.192 134.916 207.49 135.092 205.891 135.534C204.291 135.976 202.831 136.676 201.605 137.586Z" fill="black"/>
<path opacity="0.1" d="M282.5 137.587L278.519 134.505L273.214 135.042C274.906 134.935 276.608 135.107 278.209 135.545C279.809 135.984 281.272 136.68 282.5 137.587Z" fill="black"/>
<path opacity="0.1" d="M247.691 231.698L250.341 231.784L250.667 231.183L247.691 231.161V231.698Z" fill="black"/>
<path opacity="0.1" d="M176.742 30.0412L177.068 29.2305L194.393 34.6749L193.984 35.1796L176.742 30.0412Z" fill="black"/>
<path opacity="0.1" d="M306.351 29.1279L288.888 34.4596L289.463 34.6636L306.705 29.5306L306.351 29.1279Z" fill="black"/>
<path opacity="0.1" d="M180.057 74.702L193.983 35.1738H191.993L178.067 74.702C178.067 74.702 197.957 115.975 215.865 115.616H217.855C199.92 115.981 180.057 74.702 180.057 74.702Z" fill="black"/>
<path opacity="0.1" d="M303.39 75.7324L289.463 35.1787H291.468L305.394 75.7324C305.394 75.7324 285.503 117.006 267.596 116.646H265.605C283.492 117.006 303.39 75.7324 303.39 75.7324Z" fill="black"/>
<path d="M409.418 372.232C416.386 372.232 422.034 361.497 422.034 348.253C422.034 335.01 416.386 324.274 409.418 324.274C402.451 324.274 396.803 335.01 396.803 348.253C396.803 361.497 402.451 372.232 409.418 372.232Z" fill="url(#paint1_linear_201:485)"/>
<path d="M455.324 377.671L363.554 377.242V376.044C363.554 363.293 376.898 360.715 393.377 360.71H425.495C441.966 360.71 455.317 363.271 455.317 376.023L455.324 377.671Z" fill="url(#paint2_linear_201:485)"/>
<path d="M355.523 298.996L351.771 298.786C335.161 297.863 323.6 293.315 317.392 285.261C305.533 269.879 318.211 247.677 318.779 246.732L319.778 245.014H360.697L355.523 298.996ZM324.758 250.85C322.226 256.021 315.742 271.709 323.898 282.287C328.323 288.016 336.617 291.506 348.588 292.682L352.569 250.839L324.758 250.85Z" fill="url(#paint3_linear_201:485)"/>
<path d="M462.12 298.964L456.926 244.977H497.845L498.843 246.695C499.391 247.634 512.09 269.831 500.231 285.219C494.03 293.273 482.469 297.831 465.866 298.765L462.12 298.964ZM465.047 250.808L469.077 292.645C481.047 291.463 489.335 287.968 493.76 282.234C501.916 271.651 495.403 255.967 492.865 250.797L465.047 250.808Z" fill="url(#paint4_linear_201:485)"/>
<path d="M408.843 343.813C393.785 343.817 379.341 339.191 368.689 330.951C358.037 322.712 352.049 311.534 352.042 299.877L352 230.168L465.547 230.125L465.588 299.834C465.595 311.491 459.621 322.673 448.98 330.921C438.338 339.168 423.9 343.806 408.843 343.813Z" fill="url(#paint5_linear_201:485)"/>
<path d="M413.365 207.139H402.58C393.004 207.139 385.241 213.148 385.241 220.562V242.012C385.241 249.425 393.004 255.435 402.58 255.435H413.365C422.94 255.435 430.703 249.425 430.703 242.012V220.562C430.703 213.148 422.94 207.139 413.365 207.139Z" fill="#F9D075"/>
<path d="M384.402 201.002C384.402 201.002 379.242 193.759 381.774 186.828C381.774 186.828 392.676 184.567 400.076 191.198L384.402 201.002Z" fill="#F9D075"/>
<path d="M385.99 199.139C385.99 199.139 382.155 193.77 384.035 188.594C384.035 188.594 392.142 186.914 397.649 191.848L385.99 199.139Z" fill="#FFE9A1"/>
<path d="M432.867 199.139C432.867 199.139 436.702 193.77 434.823 188.594C434.823 188.594 426.715 186.914 421.208 191.848L432.867 199.139Z" fill="#FFE9A1"/>
<path d="M434.448 201.002C434.448 201.002 439.608 193.759 437.077 186.828C437.077 186.828 426.174 184.567 418.774 191.198L434.448 201.002Z" fill="#F9D075"/>
<path d="M432.867 199.139C432.867 199.139 436.702 193.77 434.823 188.594C434.823 188.594 426.715 186.914 421.208 191.848L432.867 199.139Z" fill="#FFE9A1"/>
<path d="M437.07 209.722C437.07 210.295 437.038 210.864 436.973 211.429C435.801 221.953 423.913 230.222 409.425 230.222C396.456 230.222 385.568 223.596 382.585 214.651C382.05 213.039 381.78 211.381 381.781 209.716C381.781 198.398 394.161 189.217 409.425 189.217C424.69 189.217 437.07 198.414 437.07 209.722Z" fill="#F9D075"/>
<path d="M385.872 219.531L383.792 216.062H375.192L380.047 219.381L376.544 220.283C376.544 220.283 405.548 244.396 440.787 220.283L438.061 219.531L442.348 216.669L439.192 216.062L440.357 214.253L435.655 214.403L430.231 222.237L412.144 228.422L385.872 219.531Z" fill="#FFE9A1"/>
<path d="M419.357 213.802C420.755 213.802 421.888 212.925 421.888 211.843C421.888 210.76 420.755 209.883 419.357 209.883C417.959 209.883 416.825 210.76 416.825 211.843C416.825 212.925 417.959 213.802 419.357 213.802Z" fill="#2B1F0E"/>
<path d="M398.724 213.802C400.122 213.802 401.255 212.925 401.255 211.843C401.255 210.76 400.122 209.883 398.724 209.883C397.326 209.883 396.192 210.76 396.192 211.843C396.192 212.925 397.326 213.802 398.724 213.802Z" fill="#2B1F0E"/>
<path d="M436.98 211.44C435.808 221.964 423.92 230.233 409.432 230.233C396.463 230.233 385.575 223.607 382.592 214.662C383.979 215.639 385.221 217.057 386.33 217.98C387.136 218.715 388.07 219.36 389.105 219.897C390.804 220.702 392.871 220.89 394.861 220.971C396.657 221.024 398.655 220.939 399.938 219.961C401.221 218.984 401.366 217.561 402.102 216.348C402.667 215.473 403.495 214.717 404.516 214.14C405.537 213.564 406.721 213.185 407.969 213.035C410.489 212.761 413.049 213.247 415.119 214.394C415.68 214.677 416.165 215.042 416.548 215.467C416.948 216.056 417.276 216.673 417.526 217.309C419.128 220.316 424.302 221.524 428.206 220.321C432.111 219.118 434.698 216.085 435.662 212.917C435.842 212.289 436.224 211.505 436.98 211.44Z" fill="#FFE9A1"/>
<path d="M409.037 221.491L407.872 222.393C408.206 222.519 408.572 222.584 408.943 222.584C409.315 222.584 409.681 222.519 410.015 222.393L409.037 221.491Z" fill="#F25F1D"/>
<path d="M437.07 207.472H381.781V208.98H437.07V207.472Z" fill="#535461"/>
<path d="M392.877 208.98H381.781V216.97H392.877V208.98Z" fill="#535461"/>
<path opacity="0.2" d="M392.78 208.906H405.632V210.587C405.632 212.019 404.896 213.393 403.588 214.406C402.28 215.419 400.505 215.988 398.655 215.988H392.787V208.906H392.78Z" fill="#535461"/>
<path d="M380.83 207.472H382.141V216.965H380.803C380.237 216.965 379.677 216.879 379.155 216.711C378.632 216.544 378.157 216.298 377.757 215.988C377.357 215.679 377.04 215.311 376.824 214.907C376.607 214.502 376.496 214.069 376.496 213.631V210.801C376.496 210.363 376.607 209.93 376.824 209.525C377.04 209.121 377.357 208.753 377.757 208.443C378.157 208.134 378.632 207.888 379.155 207.721C379.677 207.553 380.237 207.467 380.803 207.467L380.83 207.472Z" fill="#535461"/>
<path d="M403.489 222.017C403.489 222.017 408.94 223.977 408.94 219.005" stroke="#2B1F0E" stroke-width="2" stroke-miterlimit="10" stroke-linecap="round"/>
<path d="M414.391 222.017C414.391 222.017 408.94 223.977 408.94 219.005" stroke="#2B1F0E" stroke-width="2" stroke-miterlimit="10" stroke-linecap="round"/>
<path d="M409.037 219.075C410.22 219.075 411.18 218.13 411.18 216.965C411.18 215.799 410.22 214.854 409.037 214.854C407.853 214.854 406.894 215.799 406.894 216.965C406.894 218.13 407.853 219.075 409.037 219.075Z" fill="#F25F1D"/>
<path d="M409.404 370.1C416.146 370.1 421.611 359.715 421.611 346.905C421.611 334.095 416.146 323.71 409.404 323.71C402.663 323.71 397.198 334.095 397.198 346.905C397.198 359.715 402.663 370.1 409.404 370.1Z" fill="#CFD8DC"/>
<path d="M357.264 299.259L353.637 299.055C337.574 298.164 326.38 293.761 320.347 285.97C308.875 271.087 321.137 249.61 321.664 248.703L322.628 247.038H362.195L357.264 299.259ZM327.476 252.676C325.028 257.675 318.745 272.853 326.644 283.087C330.923 288.628 338.947 292.005 350.53 293.144L354.379 252.676H327.476Z" fill="#CFD8DC"/>
<path d="M460.38 299.222L455.352 246.995H494.918L495.889 248.66C496.416 249.567 508.706 271.039 497.276 285.927C491.284 293.718 480.097 298.126 464.035 299.034L460.38 299.222ZM463.209 252.638L467.107 293.111C478.682 291.968 486.707 288.585 490.979 283.039C498.871 272.8 492.567 257.632 490.112 252.627L463.209 252.638Z" fill="#CFD8DC"/>
<g opacity="0.1">
<path opacity="0.1" d="M322.254 287.254C310.783 272.37 323.045 250.893 323.572 249.986L324.536 248.321H352.104L352.222 247.113H322.656L321.692 248.778C321.165 249.685 308.903 271.167 320.374 286.046C322.319 288.572 324.868 290.788 327.885 292.574C325.675 291.029 323.777 289.235 322.254 287.254Z" fill="white"/>
</g>
<path opacity="0.05" d="M463.716 246.995L465.463 247.06L465.311 252.568L463.723 252.638L463.716 246.995Z" fill="black"/>
<path opacity="0.05" d="M353.9 247.032H352.014V252.675H353.9V247.032Z" fill="black"/>
<path opacity="0.1" d="M409.37 325.407C403.572 325.407 398.724 333.096 397.482 343.399C401.212 344.004 405.012 344.308 408.822 344.307C413.004 344.315 417.173 343.955 421.25 343.233C419.988 332.999 415.154 325.402 409.37 325.407Z" fill="black"/>
<path d="M353.886 232.653H463.743V300.085C463.743 305.67 462.323 311.199 459.562 316.359C456.802 321.518 452.756 326.206 447.655 330.155C442.555 334.103 436.499 337.236 429.835 339.373C423.171 341.51 416.028 342.61 408.815 342.61C394.247 342.61 380.276 338.129 369.975 330.155C359.674 322.18 353.886 311.364 353.886 300.085V232.653Z" fill="#CFD8DC"/>
<path opacity="0.1" d="M358.304 300.489L358.27 233.057H353.886L353.921 300.489C353.928 311.766 359.722 322.579 370.027 330.55C380.331 338.52 394.304 342.996 408.87 342.991C409.606 342.991 410.334 342.991 411.062 342.954C396.886 342.521 383.477 337.858 373.642 329.943C363.808 322.027 358.311 311.472 358.304 300.489Z" fill="white"/>
<path opacity="0.1" d="M419.849 360.328H398.967C401.11 367.024 404.986 371.496 409.411 371.491C413.836 371.485 417.692 367.04 419.849 360.328Z" fill="black"/>
<path d="M453.805 375.883L365.032 375.91C365.032 364.673 376.822 360.925 391.303 360.925H427.506C442.022 360.925 453.798 364.683 453.798 375.894L453.805 375.883Z" fill="#CFD8DC"/>
<path opacity="0.1" d="M397.316 358.938H393.848C377.897 358.938 365.004 363.577 365.011 375.915H368.478C368.451 363.577 381.378 358.943 397.316 358.938Z" fill="white"/>
<path d="M408.364 299.522C420.514 299.522 430.363 291.897 430.363 282.491C430.363 273.085 420.514 265.46 408.364 265.46C396.214 265.46 386.365 273.085 386.365 282.491C386.365 291.897 396.214 299.522 408.364 299.522Z" fill="#DA552F"/>
<path d="M411.298 273.976H400.666V291.007H405.063V285.895H411.305C413.346 285.895 415.305 285.267 416.748 284.15C418.192 283.032 419.003 281.516 419.003 279.935C419.003 278.355 418.192 276.839 416.748 275.721C415.305 274.604 413.346 273.976 411.305 273.976H411.298ZM411.298 282.491H405.056V277.374H411.298C412.173 277.374 413.013 277.644 413.632 278.123C414.251 278.602 414.599 279.252 414.599 279.93C414.599 280.608 414.251 281.258 413.632 281.737C413.013 282.217 412.173 282.486 411.298 282.486V282.491Z" fill="white"/>
<path d="M436.342 243.575C441.375 243.575 445.455 239.751 445.455 235.033C445.455 230.315 441.375 226.49 436.342 226.49C431.309 226.49 427.229 230.315 427.229 235.033C427.229 239.751 431.309 243.575 436.342 243.575Z" fill="#FFE9A1"/>
<path d="M376.808 241.465C381.841 241.465 385.921 237.64 385.921 232.922C385.921 228.204 381.841 224.38 376.808 224.38C371.775 224.38 367.695 228.204 367.695 232.922C367.695 237.64 371.775 241.465 376.808 241.465Z" fill="#FFE9A1"/>
<g opacity="0.3">
<path opacity="0.3" d="M422.422 101.919H420.98V108.244H422.422V101.919Z" fill="#47E6B1"/>
<path opacity="0.3" d="M425.786 105.64V104.523H417.616V105.64H425.786Z" fill="#47E6B1"/>
</g>
<g opacity="0.3">
<path opacity="0.3" d="M502.873 152.39H501.431V158.715H502.873V152.39Z" fill="#47E6B1"/>
<path opacity="0.3" d="M506.237 156.111V154.994H498.067V156.111H506.237Z" fill="#47E6B1"/>
</g>
<path opacity="0.3" d="M471.449 47.6517C471.051 47.5175 470.731 47.2748 470.55 46.9699C470.368 46.6651 470.338 46.3191 470.464 45.998C470.485 45.9493 470.499 45.8988 470.505 45.8476C470.515 45.7015 470.464 45.5568 470.36 45.4345C470.257 45.3123 470.105 45.2189 469.928 45.168C469.751 45.117 469.557 45.1112 469.375 45.1514C469.193 45.1915 469.033 45.2756 468.917 45.3912C468.878 45.4329 468.846 45.4779 468.82 45.5255C468.647 45.8332 468.333 46.0809 467.94 46.2215C467.546 46.362 467.099 46.3857 466.684 46.2879C466.621 46.2713 466.556 46.2605 466.49 46.2557C466.301 46.2482 466.114 46.2875 465.956 46.3679C465.798 46.4483 465.678 46.5657 465.612 46.7029C465.546 46.8401 465.539 46.9899 465.59 47.1307C465.642 47.2714 465.751 47.3956 465.9 47.4852C465.954 47.5155 466.012 47.5407 466.074 47.5604C466.471 47.6946 466.791 47.9372 466.973 48.2421C467.154 48.547 467.185 48.8929 467.059 49.2141C467.037 49.2628 467.023 49.3133 467.017 49.3645C467.007 49.5106 467.058 49.6553 467.162 49.7776C467.266 49.8998 467.417 49.9932 467.595 50.0441C467.772 50.0951 467.965 50.1009 468.147 50.0607C468.329 50.0205 468.489 49.9365 468.605 49.8208C468.644 49.7792 468.677 49.7342 468.702 49.6866C468.876 49.3789 469.189 49.1312 469.583 48.9906C469.977 48.85 470.423 48.8264 470.838 48.9242C470.901 48.9408 470.966 48.9516 471.033 48.9564C471.221 48.9639 471.408 48.9246 471.566 48.8442C471.724 48.7638 471.845 48.6464 471.91 48.5092C471.976 48.372 471.984 48.2222 471.932 48.0814C471.88 47.9407 471.771 47.8165 471.622 47.7268C471.568 47.6966 471.51 47.6714 471.449 47.6517Z" fill="#4D8AF0"/>
<path opacity="0.3" d="M318.176 158.258C317.778 158.124 317.459 157.881 317.277 157.576C317.095 157.272 317.065 156.926 317.191 156.604C317.213 156.556 317.227 156.505 317.233 156.454C317.242 156.308 317.192 156.163 317.088 156.041C316.984 155.919 316.832 155.825 316.655 155.774C316.478 155.723 316.284 155.718 316.103 155.758C315.921 155.798 315.76 155.882 315.645 155.998C315.605 156.039 315.573 156.084 315.547 156.132C315.374 156.44 315.061 156.687 314.667 156.828C314.273 156.968 313.826 156.992 313.411 156.894C313.348 156.878 313.283 156.867 313.217 156.862C313.028 156.855 312.841 156.894 312.683 156.974C312.526 157.055 312.405 157.172 312.339 157.309C312.273 157.447 312.266 157.596 312.318 157.737C312.37 157.878 312.478 158.002 312.628 158.092C312.681 158.122 312.74 158.147 312.801 158.167C313.198 158.301 313.518 158.544 313.7 158.849C313.882 159.153 313.912 159.499 313.786 159.821C313.764 159.869 313.75 159.92 313.744 159.971C313.734 160.117 313.785 160.262 313.889 160.384C313.993 160.506 314.145 160.6 314.322 160.651C314.499 160.701 314.693 160.707 314.874 160.667C315.056 160.627 315.217 160.543 315.332 160.427C315.371 160.386 315.404 160.341 315.43 160.293C315.603 159.985 315.916 159.738 316.31 159.597C316.704 159.456 317.151 159.433 317.566 159.531C317.629 159.547 317.694 159.558 317.76 159.563C317.949 159.57 318.136 159.531 318.293 159.451C318.451 159.37 318.572 159.253 318.638 159.116C318.704 158.978 318.711 158.829 318.659 158.688C318.607 158.547 318.499 158.423 318.349 158.333C318.296 158.303 318.237 158.278 318.176 158.258Z" fill="#4D8AF0"/>
<path opacity="0.3" d="M134.727 179.118C134.33 178.983 134.01 178.741 133.828 178.436C133.647 178.131 133.616 177.785 133.743 177.464C133.764 177.415 133.778 177.365 133.784 177.313C133.794 177.167 133.743 177.023 133.639 176.9C133.535 176.778 133.384 176.685 133.207 176.634C133.029 176.583 132.836 176.577 132.654 176.617C132.472 176.657 132.312 176.741 132.196 176.857C132.157 176.899 132.124 176.944 132.099 176.991C131.926 177.299 131.612 177.547 131.218 177.687C130.825 177.828 130.378 177.851 129.963 177.754C129.9 177.737 129.835 177.726 129.769 177.721C129.58 177.714 129.393 177.753 129.235 177.834C129.077 177.914 128.956 178.032 128.891 178.169C128.825 178.306 128.817 178.456 128.869 178.596C128.921 178.737 129.03 178.861 129.179 178.951C129.233 178.981 129.291 179.007 129.352 179.026C129.75 179.16 130.07 179.403 130.252 179.708C130.433 180.013 130.464 180.359 130.337 180.68C130.316 180.729 130.302 180.779 130.296 180.83C130.286 180.976 130.337 181.121 130.441 181.243C130.545 181.366 130.696 181.459 130.873 181.51C131.051 181.561 131.244 181.567 131.426 181.527C131.608 181.486 131.768 181.402 131.884 181.287C131.923 181.245 131.956 181.2 131.981 181.152C132.154 180.845 132.468 180.597 132.862 180.456C133.255 180.316 133.702 180.292 134.117 180.39C134.18 180.407 134.245 180.417 134.311 180.422C134.5 180.43 134.687 180.39 134.845 180.31C135.003 180.23 135.123 180.112 135.189 179.975C135.255 179.838 135.263 179.688 135.211 179.547C135.159 179.407 135.05 179.282 134.901 179.193C134.847 179.162 134.789 179.137 134.727 179.118Z" fill="#FDD835"/>
<path opacity="0.3" d="M5.90907 244.412C5.51157 244.278 5.19163 244.036 5.01006 243.731C4.82849 243.426 4.79795 243.08 4.92425 242.759C4.94569 242.71 4.95966 242.66 4.96586 242.608C4.97558 242.462 4.9248 242.317 4.82091 242.195C4.71701 242.073 4.56542 241.98 4.38822 241.929C4.21101 241.878 4.01743 241.872 3.83567 241.912C3.6539 241.952 3.49345 242.036 3.37765 242.152C3.33859 242.194 3.306 242.239 3.28056 242.286C3.10718 242.594 2.7938 242.842 2.39997 242.982C2.00614 243.123 1.55932 243.146 1.14445 243.049C1.08157 243.032 1.0164 243.021 0.950256 243.016C0.761485 243.009 0.574535 243.048 0.416628 243.129C0.258721 243.209 0.138099 243.326 0.0723229 243.464C0.00654714 243.601 -0.000940379 243.751 0.0509355 243.891C0.102811 244.032 0.211341 244.156 0.360741 244.246C0.414522 244.276 0.472718 244.301 0.534127 244.321C0.931631 244.455 1.25158 244.698 1.43315 245.003C1.61472 245.308 1.64525 245.654 1.51895 245.975C1.49751 246.024 1.48354 246.074 1.47734 246.125C1.46762 246.271 1.51841 246.416 1.6223 246.538C1.7262 246.661 1.87779 246.754 2.05499 246.805C2.2322 246.856 2.42577 246.862 2.60753 246.821C2.7893 246.781 2.94976 246.697 3.06556 246.582C3.10462 246.54 3.13721 246.495 3.16265 246.447C3.33603 246.14 3.64941 245.892 4.04324 245.751C4.43707 245.611 4.88389 245.587 5.29876 245.685C5.36164 245.702 5.42682 245.712 5.49295 245.717C5.68173 245.725 5.86868 245.685 6.02658 245.605C6.18449 245.525 6.3051 245.407 6.37088 245.27C6.43665 245.133 6.44415 244.983 6.39227 244.842C6.3404 244.701 6.23186 244.577 6.08246 244.488C6.02868 244.457 5.97048 244.432 5.90907 244.412Z" fill="#FDD835"/>
<path opacity="0.3" d="M132.258 121.028C133.852 121.028 135.144 120.028 135.144 118.794C135.144 117.561 133.852 116.561 132.258 116.561C130.665 116.561 129.373 117.561 129.373 118.794C129.373 120.028 130.665 121.028 132.258 121.028Z" fill="#F55F44"/>
<path opacity="0.3" d="M373.299 4.46719C374.892 4.46719 376.184 3.46718 376.184 2.2336C376.184 1.00002 374.892 0 373.299 0C371.705 0 370.414 1.00002 370.414 2.2336C370.414 3.46718 371.705 4.46719 373.299 4.46719Z" fill="#F55F44"/>
<path opacity="0.3" d="M94.495 32.3871C96.0884 32.3871 97.3801 31.3871 97.3801 30.1535C97.3801 28.9199 96.0884 27.9199 94.495 27.9199C92.9016 27.9199 91.6099 28.9199 91.6099 30.1535C91.6099 31.3871 92.9016 32.3871 94.495 32.3871Z" fill="#F55F44"/>
<path opacity="0.3" d="M6.41516 160.175C8.00858 160.175 9.30029 159.175 9.30029 157.942C9.30029 156.708 8.00858 155.708 6.41516 155.708C4.82175 155.708 3.53003 156.708 3.53003 157.942C3.53003 159.175 4.82175 160.175 6.41516 160.175Z" fill="#F55F44"/>
<path opacity="0.3" d="M540.893 110.847C542.486 110.847 543.778 109.847 543.778 108.613C543.778 107.38 542.486 106.38 540.893 106.38C539.3 106.38 538.008 107.38 538.008 108.613C538.008 109.847 539.3 110.847 540.893 110.847Z" fill="#F55F44"/>
<path opacity="0.3" d="M573.115 183.73C574.708 183.73 576 182.73 576 181.496C576 180.263 574.708 179.263 573.115 179.263C571.521 179.263 570.23 180.263 570.23 181.496C570.23 182.73 571.521 183.73 573.115 183.73Z" fill="#4D8AF0"/>
<path opacity="0.3" d="M573.115 294.872C574.708 294.872 576 293.872 576 292.639C576 291.405 574.708 290.405 573.115 290.405C571.521 290.405 570.23 291.405 570.23 292.639C570.23 293.872 571.521 294.872 573.115 294.872Z" fill="#4D8AF0"/>
<path opacity="0.3" d="M109.829 289.503C111.423 289.503 112.714 288.503 112.714 287.27C112.714 286.036 111.423 285.036 109.829 285.036C108.236 285.036 106.944 286.036 106.944 287.27C106.944 288.503 108.236 289.503 109.829 289.503Z" fill="#4D8AF0"/>
<path opacity="0.3" d="M41.5223 239.495C43.1158 239.495 44.4075 238.495 44.4075 237.261C44.4075 236.027 43.1158 235.027 41.5223 235.027C39.9289 235.027 38.6372 236.027 38.6372 237.261C38.6372 238.495 39.9289 239.495 41.5223 239.495Z" fill="#47E6B1"/>
<path opacity="0.3" d="M44.7196 118.842C46.313 118.842 47.6047 117.842 47.6047 116.609C47.6047 115.375 46.313 114.375 44.7196 114.375C43.1262 114.375 41.8345 115.375 41.8345 116.609C41.8345 117.842 43.1262 118.842 44.7196 118.842Z" fill="#47E6B1"/>
<path opacity="0.3" d="M16.5687 65.5365C18.1621 65.5365 19.4539 64.5365 19.4539 63.3029C19.4539 62.0694 18.1621 61.0693 16.5687 61.0693C14.9753 61.0693 13.6836 62.0694 13.6836 63.3029C13.6836 64.5365 14.9753 65.5365 16.5687 65.5365Z" fill="#47E6B1"/>
</g>
<defs>
<linearGradient id="paint0_linear_201:485" x1="239.799" y1="381" x2="239.799" y2="9.98719" gradientUnits="userSpaceOnUse">
<stop stop-color="#808080" stop-opacity="0.25"/>
<stop offset="0.54" stop-color="#808080" stop-opacity="0.12"/>
<stop offset="1" stop-color="#808080" stop-opacity="0.1"/>
</linearGradient>
<linearGradient id="paint1_linear_201:485" x1="19848.9" y1="37688.1" x2="19847.8" y2="33405" gradientUnits="userSpaceOnUse">
<stop stop-color="#808080" stop-opacity="0.25"/>
<stop offset="0.54" stop-color="#808080" stop-opacity="0.12"/>
<stop offset="1" stop-color="#808080" stop-opacity="0.1"/>
</linearGradient>
<linearGradient id="paint2_linear_201:485" x1="71526.5" y1="13747" x2="71526.3" y2="13210" gradientUnits="userSpaceOnUse">
<stop stop-color="#808080" stop-opacity="0.25"/>
<stop offset="0.54" stop-color="#808080" stop-opacity="0.12"/>
<stop offset="1" stop-color="#808080" stop-opacity="0.1"/>
</linearGradient>
<linearGradient id="paint3_linear_201:485" x1="32739.4" y1="34987.6" x2="32737.9" y2="29559.7" gradientUnits="userSpaceOnUse">
<stop stop-color="#808080" stop-opacity="0.25"/>
<stop offset="0.54" stop-color="#808080" stop-opacity="0.12"/>
<stop offset="1" stop-color="#808080" stop-opacity="0.1"/>
</linearGradient>
<linearGradient id="paint4_linear_201:485" x1="42961.5" y1="34988.3" x2="42960" y2="29559.8" gradientUnits="userSpaceOnUse">
<stop stop-color="#808080" stop-opacity="0.25"/>
<stop offset="0.54" stop-color="#808080" stop-opacity="0.12"/>
<stop offset="1" stop-color="#808080" stop-opacity="0.1"/>
</linearGradient>
<linearGradient id="paint5_linear_201:485" x1="88368.7" y1="82886.2" x2="88362.2" y2="58818.5" gradientUnits="userSpaceOnUse">
<stop stop-color="#808080" stop-opacity="0.25"/>
<stop offset="0.54" stop-color="#808080" stop-opacity="0.12"/>
<stop offset="1" stop-color="#808080" stop-opacity="0.1"/>
</linearGradient>
<clipPath id="clip0_201:485">
<rect width="576" height="381" fill="white"/>
</clipPath>
</defs>
</svg>
