<svg width="681" height="322" viewBox="0 0 681 322" fill="none" xmlns="http://www.w3.org/2000/svg">
<g clip-path="url(#clip0_201:259)">
<path d="M390.482 315.114C386.267 315.112 382.226 313.511 379.247 310.664C376.267 307.817 374.594 303.957 374.594 299.932C374.594 295.907 376.267 292.047 379.247 289.2C382.226 286.353 386.267 284.752 390.482 284.749H626.646C625.458 282.667 623.705 280.929 621.571 279.717C619.436 278.505 617 277.865 614.517 277.863H145.084C138.96 277.87 133.089 280.198 128.761 284.336C124.433 288.474 122.002 294.083 122.003 299.932C122.006 305.779 124.438 311.386 128.765 315.524C133.092 319.661 138.961 321.99 145.084 322H614.516C617 321.999 619.436 321.358 621.571 320.147C623.705 318.935 625.458 317.197 626.646 315.114L390.482 315.114Z" fill="#CCCCCC"/>
<path d="M626.96 293.115H402.423C402.079 293.114 401.75 292.983 401.507 292.751C401.264 292.518 401.128 292.203 401.128 291.875C401.128 291.547 401.264 291.232 401.507 291C401.75 290.767 402.079 290.637 402.423 290.636H626.96C627.304 290.637 627.633 290.767 627.876 291C628.119 291.232 628.255 291.547 628.255 291.875C628.255 292.203 628.119 292.518 627.876 292.751C627.633 292.983 627.304 293.114 626.96 293.115Z" fill="#CCCCCC"/>
<path d="M626.96 301.171H402.423C402.079 301.171 401.749 301.041 401.505 300.808C401.262 300.576 401.125 300.26 401.125 299.932C401.125 299.603 401.262 299.288 401.505 299.055C401.749 298.823 402.079 298.692 402.423 298.692H626.96C627.304 298.692 627.635 298.823 627.878 299.055C628.121 299.288 628.258 299.603 628.258 299.932C628.258 300.26 628.121 300.576 627.878 300.808C627.635 301.041 627.304 301.171 626.96 301.171Z" fill="#CCCCCC"/>
<path d="M626.96 309.227H402.423C402.079 309.226 401.75 309.095 401.507 308.863C401.264 308.63 401.128 308.316 401.128 307.987C401.128 307.659 401.264 307.344 401.507 307.112C401.75 306.88 402.079 306.749 402.423 306.748H626.96C627.304 306.749 627.633 306.88 627.876 307.112C628.119 307.344 628.255 307.659 628.255 307.987C628.255 308.316 628.119 308.63 627.876 308.863C627.633 309.095 627.304 309.226 626.96 309.227Z" fill="#CCCCCC"/>
<path d="M329.48 272.355C325.266 272.352 321.224 270.751 318.245 267.904C315.266 265.057 313.592 261.197 313.592 257.172C313.592 253.147 315.266 249.287 318.245 246.44C321.224 243.593 325.266 241.992 329.48 241.99H565.645C564.457 239.907 562.704 238.169 560.569 236.957C558.435 235.746 555.998 235.105 553.515 235.104H84.0832C77.9587 235.11 72.0874 237.438 67.7594 241.576C63.4314 245.714 61.0006 251.324 61.0012 257.172C61.0044 263.019 63.4364 268.627 67.7636 272.764C72.0908 276.901 77.9598 279.23 84.0832 279.241H553.515C555.998 279.239 558.435 278.599 560.569 277.387C562.704 276.175 564.457 274.437 565.645 272.355L329.48 272.355Z" fill="#FF8B4A"/>
<path d="M565.959 250.356H341.421C341.078 250.355 340.748 250.224 340.506 249.992C340.263 249.759 340.126 249.445 340.126 249.116C340.126 248.788 340.263 248.473 340.506 248.241C340.748 248.009 341.078 247.878 341.421 247.877H565.959C566.303 247.877 566.633 248.008 566.876 248.24C567.12 248.472 567.257 248.788 567.257 249.116C567.257 249.445 567.12 249.76 566.876 249.993C566.633 250.225 566.303 250.356 565.959 250.356Z" fill="#CCCCCC"/>
<path d="M565.959 258.411H341.421C341.077 258.411 340.747 258.281 340.503 258.048C340.26 257.816 340.123 257.501 340.123 257.172C340.123 256.843 340.26 256.528 340.503 256.296C340.747 256.063 341.077 255.933 341.421 255.933H565.959C566.303 255.933 566.633 256.063 566.876 256.296C567.12 256.528 567.257 256.843 567.257 257.172C567.257 257.501 567.12 257.816 566.876 258.048C566.633 258.281 566.303 258.411 565.959 258.411Z" fill="#CCCCCC"/>
<path d="M565.959 266.468H341.421C341.078 266.467 340.748 266.336 340.506 266.104C340.263 265.872 340.126 265.557 340.126 265.229C340.126 264.9 340.263 264.586 340.506 264.353C340.748 264.121 341.078 263.99 341.421 263.989H565.959C566.129 263.989 566.298 264.021 566.456 264.083C566.614 264.145 566.757 264.236 566.878 264.351C566.999 264.466 567.095 264.603 567.16 264.754C567.226 264.904 567.26 265.066 567.26 265.229C567.26 265.392 567.226 265.553 567.16 265.704C567.095 265.854 566.999 265.991 566.878 266.106C566.757 266.221 566.614 266.312 566.456 266.375C566.298 266.437 566.129 266.468 565.959 266.468Z" fill="#CCCCCC"/>
<path d="M268.479 228.169C264.264 228.166 260.223 226.566 257.244 223.719C254.264 220.872 252.591 217.011 252.591 212.987C252.591 208.962 254.264 205.102 257.244 202.255C260.223 199.408 264.264 197.807 268.479 197.804H504.643C503.456 195.722 501.702 193.984 499.568 192.772C497.434 191.56 494.997 190.92 492.514 190.918H23.0815C16.9571 190.925 11.0858 193.253 6.75785 197.391C2.42988 201.529 -0.000762007 207.138 1.79197e-07 212.987C0.00309875 218.834 2.43498 224.441 6.76211 228.578C11.0892 232.716 16.9582 235.045 23.0815 235.055H492.514C494.997 235.053 497.434 234.413 499.568 233.201C501.702 231.99 503.456 230.251 504.643 228.169L268.479 228.169Z" fill="#CCCCCC"/>
<path d="M504.957 206.169H280.42C280.076 206.168 279.747 206.038 279.504 205.805C279.261 205.573 279.125 205.258 279.125 204.93C279.125 204.602 279.261 204.287 279.504 204.054C279.747 203.822 280.076 203.691 280.42 203.69H504.957C505.301 203.69 505.632 203.821 505.875 204.053C506.118 204.286 506.255 204.601 506.255 204.93C506.255 205.259 506.118 205.574 505.875 205.806C505.632 206.039 505.301 206.169 504.957 206.169Z" fill="#CCCCCC"/>
<path d="M504.957 214.226H280.42C280.249 214.226 280.08 214.194 279.923 214.132C279.766 214.069 279.622 213.978 279.502 213.863C279.381 213.748 279.286 213.611 279.221 213.461C279.155 213.31 279.122 213.149 279.122 212.986C279.122 212.824 279.155 212.663 279.221 212.512C279.286 212.362 279.381 212.225 279.502 212.11C279.622 211.995 279.766 211.904 279.923 211.841C280.08 211.779 280.249 211.747 280.42 211.747H504.957C505.128 211.747 505.296 211.779 505.454 211.841C505.611 211.904 505.754 211.995 505.875 212.11C505.995 212.225 506.091 212.362 506.156 212.512C506.221 212.663 506.255 212.824 506.255 212.986C506.255 213.149 506.221 213.31 506.156 213.461C506.091 213.611 505.995 213.748 505.875 213.863C505.754 213.978 505.611 214.069 505.454 214.132C505.296 214.194 505.128 214.226 504.957 214.226Z" fill="#CCCCCC"/>
<path d="M504.957 222.282H280.42C280.076 222.282 279.745 222.151 279.502 221.918C279.259 221.686 279.122 221.371 279.122 221.042C279.122 220.713 279.259 220.398 279.502 220.166C279.745 219.933 280.076 219.803 280.42 219.803H504.957C505.128 219.803 505.296 219.835 505.454 219.897C505.611 219.959 505.754 220.051 505.875 220.166C505.995 220.281 506.091 220.417 506.156 220.568C506.221 220.718 506.255 220.879 506.255 221.042C506.255 221.205 506.221 221.366 506.156 221.516C506.091 221.667 505.995 221.803 505.875 221.918C505.754 222.034 505.611 222.125 505.454 222.187C505.296 222.249 505.128 222.282 504.957 222.282Z" fill="#CCCCCC"/>
<path d="M510.142 133.908C508.911 133.906 507.726 133.457 506.828 132.653C505.929 131.848 505.385 130.747 505.304 129.574L504.584 119.067C504.499 117.84 504.929 116.631 505.778 115.707C506.628 114.782 507.827 114.218 509.112 114.137L595.31 108.747C596.669 108.662 598.032 108.833 599.322 109.251C600.611 109.669 601.801 110.326 602.825 111.183C603.849 112.04 604.686 113.082 605.288 114.248C605.89 115.414 606.246 116.683 606.335 117.98C606.424 119.278 606.244 120.579 605.806 121.81C605.369 123.042 604.681 124.178 603.783 125.156C602.885 126.134 601.795 126.933 600.573 127.508C599.352 128.083 598.024 128.422 596.666 128.507L510.467 133.898C510.358 133.904 510.25 133.908 510.142 133.908Z" fill="#FF8B4A"/>
<path d="M527.139 135.263C525.884 135.261 524.677 134.795 523.773 133.963C522.869 133.131 522.337 131.997 522.289 130.799L521.675 115.106C521.651 114.498 521.753 113.891 521.975 113.32C522.197 112.749 522.534 112.225 522.968 111.779C523.402 111.333 523.923 110.972 524.503 110.718C525.082 110.465 525.709 110.322 526.346 110.3L597.23 107.77C598.516 107.724 599.77 108.168 600.714 109.005C601.658 109.841 602.215 111.002 602.263 112.23L602.878 127.923C602.901 128.531 602.799 129.138 602.578 129.709C602.356 130.28 602.018 130.804 601.584 131.25C601.151 131.696 600.629 132.057 600.05 132.311C599.47 132.564 598.844 132.707 598.206 132.729L527.323 135.259C527.262 135.262 527.2 135.263 527.139 135.263Z" fill="#2F2E41"/>
<path d="M610.204 279.918H599.178C597.89 279.916 596.656 279.427 595.746 278.558C594.835 277.689 594.323 276.51 594.322 275.281V187.527C594.323 186.298 594.835 185.12 595.746 184.25C596.656 183.381 597.89 182.892 599.178 182.891H610.204C611.491 182.892 612.725 183.381 613.636 184.25C614.546 185.12 615.058 186.298 615.059 187.527V275.281C615.058 276.51 614.546 277.689 613.636 278.558C612.725 279.427 611.491 279.916 610.204 279.918Z" fill="#2F2E41"/>
<path d="M561.263 233.533L551.834 228.075C550.734 227.437 549.944 226.407 549.637 225.213C549.331 224.02 549.532 222.758 550.199 221.706L597.833 146.662C598.501 145.611 599.579 144.857 600.829 144.564C602.08 144.271 603.401 144.464 604.502 145.1L613.931 150.558C615.031 151.196 615.821 152.225 616.128 153.419C616.435 154.613 616.233 155.875 615.567 156.927L567.933 231.971C567.264 233.021 566.186 233.776 564.936 234.069C563.686 234.361 562.365 234.169 561.263 233.533Z" fill="#2F2E41"/>
<path d="M593.457 91.3107C614.499 91.3107 631.556 75.0222 631.556 54.9293C631.556 34.8364 614.499 18.5479 593.457 18.5479C572.416 18.5479 555.358 34.8364 555.358 54.9293C555.358 75.0222 572.416 91.3107 593.457 91.3107Z" fill="#FF8B4A"/>
<path d="M572.835 67.3514C571.609 66.9669 570.484 66.3362 569.535 65.5019C568.906 64.9061 568.421 64.1863 568.115 63.3929C567.808 62.5994 567.686 61.7515 567.759 60.9086C567.799 60.3079 567.984 59.7243 568.299 59.2031C568.614 58.682 569.051 58.2376 569.576 57.9045C570.939 57.07 572.761 57.0675 574.616 57.8482L574.546 43.6455L576.04 43.6387L576.122 60.3355L574.971 59.6441C573.636 58.8436 571.73 58.2801 570.383 59.1055C570.05 59.3235 569.774 59.612 569.577 59.9484C569.38 60.2848 569.267 60.6601 569.246 61.045C569.196 61.673 569.288 62.3039 569.516 62.8949C569.744 63.4859 570.102 64.023 570.567 64.4698C572.217 65.9747 574.624 66.4453 577.368 66.8659L577.132 68.2744C575.673 68.0899 574.235 67.781 572.835 67.3514Z" fill="#2F2E41"/>
<path d="M559.144 42.9275L558.949 44.3418L566.926 45.3479L567.122 43.9336L559.144 42.9275Z" fill="#2F2E41"/>
<path d="M584.325 46.1023L584.129 47.5166L592.107 48.5227L592.303 47.1084L584.325 46.1023Z" fill="#2F2E41"/>
<path d="M625.27 211.072H561.025C559.341 211.07 557.727 210.431 556.537 209.294C555.346 208.157 554.677 206.616 554.675 205.008L568.125 106.519C568.135 104.918 568.809 103.387 569.998 102.26C571.187 101.132 572.795 100.5 574.471 100.501H597.271C606.378 100.511 615.108 103.97 621.548 110.119C627.987 116.268 631.609 124.605 631.62 133.301V205.008C631.618 206.616 630.948 208.157 629.758 209.294C628.567 210.431 626.953 211.07 625.27 211.072Z" fill="#2F2E41"/>
<path d="M680.544 172.264C680.941 173.075 681.083 173.978 680.955 174.865C680.827 175.752 680.433 176.584 679.821 177.262L672.613 185.229C672.196 185.69 671.688 186.068 671.118 186.341C670.548 186.615 669.928 186.778 669.292 186.823C668.656 186.867 668.017 186.791 667.411 186.6C666.806 186.408 666.246 186.105 665.764 185.707L600.397 131.778C599.367 130.929 598.521 129.893 597.91 128.731C597.298 127.569 596.933 126.304 596.833 125.007C596.734 123.71 596.903 122.407 597.331 121.172C597.759 119.938 598.438 118.796 599.328 117.812C600.219 116.828 601.303 116.021 602.52 115.437C603.737 114.854 605.062 114.504 606.421 114.41C607.779 114.315 609.143 114.477 610.436 114.886C611.729 115.296 612.924 115.944 613.954 116.794L679.321 170.722C679.838 171.148 680.255 171.673 680.544 172.264Z" fill="#FF8B4A"/>
<path d="M666.116 154.466C666.513 155.277 666.656 156.181 666.528 157.067C666.4 157.954 666.006 158.787 665.394 159.465L653.081 173.073C652.239 174.002 651.044 174.575 649.76 174.664C648.476 174.754 647.208 174.353 646.233 173.55L592.557 129.268C592.075 128.87 591.679 128.385 591.393 127.841C591.107 127.296 590.935 126.704 590.889 126.096C590.842 125.489 590.922 124.879 591.122 124.301C591.323 123.723 591.641 123.188 592.058 122.728L604.37 109.119C604.786 108.658 605.294 108.28 605.864 108.007C606.434 107.734 607.054 107.57 607.69 107.526C608.326 107.482 608.965 107.557 609.571 107.749C610.176 107.94 610.736 108.244 611.218 108.642L664.894 152.925C665.411 153.35 665.827 153.876 666.116 154.466Z" fill="#2F2E41"/>
<path d="M594.17 33.3515C589.077 29.3268 582.269 33.1333 576.509 32.5931C570.999 32.0762 566.563 27.4455 565.355 22.4624C563.945 16.6488 567.001 10.7433 571.605 7.01914C576.648 2.94026 583.418 1.67274 589.87 2.29341C597.264 3.00478 604.077 6.16631 610.21 10.0286C616.128 13.6379 621.588 17.8889 626.483 22.6969C630.868 27.1492 634.615 32.483 635.898 38.558C637.065 44.0789 636.381 50.2326 633.044 54.988C631.273 57.4265 628.874 59.388 626.079 60.6834C623.165 62.1158 620.048 63.1585 617.23 64.7694C612.969 67.205 608.879 72.169 610.33 77.2315C610.641 78.3374 611.232 79.3534 612.052 80.1898C613.036 81.1942 614.748 79.8123 613.761 78.8052C612.028 77.0365 612.047 74.6353 612.909 72.4705C613.936 70.0299 615.801 67.9951 618.198 66.6992C621.148 65.0168 624.421 63.952 627.448 62.4134C630.347 61.0055 632.847 58.9496 634.735 56.4207C638.297 51.4994 639.265 45.1611 638.319 39.3311C637.295 33.0221 633.778 27.3361 629.416 22.5969C624.669 17.4393 618.877 13.1056 612.972 9.22518C606.635 5.06145 599.656 1.57072 591.987 0.401518C585.34 -0.611997 578.172 0.216274 572.447 3.76904C567.104 7.08531 563.067 12.6964 562.778 18.8897C562.686 21.7069 563.381 24.4967 564.793 26.9719C566.205 29.4471 568.282 31.5183 570.811 32.9725C573.404 34.3911 576.398 34.9964 579.37 34.7031C582.55 34.4508 585.717 33.4623 588.925 33.6626C590.377 33.7203 591.769 34.2282 592.89 35.1093C594.003 35.9886 595.273 34.2236 594.17 33.3515Z" fill="#2F2E41"/>
<path d="M549.371 222.974C549.384 222.893 549.4 222.813 549.419 222.733C549.551 222.137 549.807 221.572 550.17 221.071C550.533 220.57 550.996 220.143 551.533 219.814L560.799 214.107C561.881 213.442 563.196 213.214 564.454 213.474C565.713 213.733 566.812 214.458 567.511 215.491L596.094 257.807C596.791 258.84 597.031 260.096 596.759 261.298C596.488 262.5 595.727 263.55 594.645 264.217L585.379 269.924C584.297 270.589 582.982 270.817 581.723 270.558C580.465 270.298 579.366 269.573 578.667 268.541L550.084 226.224C549.431 225.263 549.177 224.104 549.371 222.974Z" fill="#2F2E41"/>
</g>
<defs>
<clipPath id="clip0_201:259">
<rect width="681" height="322" fill="white"/>
</clipPath>
</defs>
</svg>
