<svg width="683" height="384" viewBox="0 0 683 384" fill="none" xmlns="http://www.w3.org/2000/svg">
<g clip-path="url(#clip0_201:334)">
<path d="M151.347 38.4657H107.791C103.603 38.4687 99.5881 39.7973 96.6271 42.1597C93.6661 44.5222 92.001 47.7255 91.9972 51.0665V88.743C91.4403 88.7165 90.8835 88.6767 90.3347 88.6236C80.0159 87.7574 70.2055 84.6085 62.0097 79.5318C53.8139 74.4552 47.5586 67.6527 43.949 59.8914C40.3395 52.1301 39.5193 43.7185 41.5808 35.6052C43.6424 27.4918 48.5038 19.9993 55.6169 13.9723C62.73 7.94542 71.8119 3.62379 81.8387 1.49468C91.8655 -0.634419 102.438 -0.486317 112.365 1.9223C122.292 4.33092 131.178 8.90426 138.022 15.1267C144.865 21.3491 149.394 28.9732 151.098 37.1393C151.189 37.577 151.272 38.0214 151.347 38.4657Z" fill="#F2F2F2"/>
<path d="M665.544 37.1396H107.79C103.162 37.1437 98.7255 38.6123 95.453 41.2233C92.1805 43.8343 90.3398 47.3744 90.3347 51.0669V285.84C90.3398 289.533 92.1805 293.073 95.453 295.684C98.7255 298.295 103.162 299.763 107.79 299.767H665.544C670.172 299.763 674.609 298.295 677.882 295.684C681.154 293.073 682.995 289.533 683 285.84V51.0669C682.995 47.3744 681.154 43.8343 677.882 41.2233C674.609 38.6123 670.172 37.1437 665.544 37.1396ZM681.338 285.84C681.334 289.181 679.669 292.385 676.708 294.747C673.747 297.109 669.732 298.438 665.544 298.441H107.79C103.603 298.438 99.5881 297.109 96.6271 294.747C93.6661 292.385 92.001 289.181 91.9972 285.84V51.0669C92.001 47.7259 93.6661 44.5225 96.6271 42.1601C99.5881 39.7976 103.603 38.4691 107.79 38.4661H665.544C669.732 38.4691 673.747 39.7976 676.708 42.1601C679.669 44.5225 681.334 47.7259 681.338 51.0669V285.84Z" fill="#3F3D56"/>
<path d="M638.114 75.1868H135.221C135 75.1868 134.789 75.1169 134.633 74.9925C134.477 74.8681 134.39 74.6994 134.39 74.5236C134.39 74.3477 134.477 74.179 134.633 74.0546C134.789 73.9302 135 73.8604 135.221 73.8604H638.114C638.334 73.8604 638.545 73.9302 638.701 74.0546C638.857 74.179 638.945 74.3477 638.945 74.5236C638.945 74.6994 638.857 74.8681 638.701 74.9925C638.545 75.1169 638.334 75.1868 638.114 75.1868Z" fill="#3F3D56"/>
<path d="M277.361 271.249C277.14 271.249 276.929 271.179 276.773 271.055C276.617 270.931 276.53 270.762 276.53 270.586V52.3927C276.53 52.2168 276.617 52.0481 276.773 51.9237C276.929 51.7994 277.14 51.7295 277.361 51.7295C277.581 51.7295 277.793 51.7994 277.949 51.9237C278.105 52.0481 278.192 52.2168 278.192 52.3927V270.586C278.192 270.762 278.105 270.931 277.949 271.055C277.793 271.179 277.581 271.249 277.361 271.249Z" fill="#3F3D56"/>
<path d="M402.876 271.249C402.656 271.249 402.444 271.179 402.289 271.055C402.133 270.931 402.045 270.762 402.045 270.586V52.3927C402.045 52.2168 402.133 52.0481 402.289 51.9237C402.444 51.7994 402.656 51.7295 402.876 51.7295C403.097 51.7295 403.308 51.7994 403.464 51.9237C403.62 52.0481 403.707 52.2168 403.707 52.3927V270.586C403.707 270.762 403.62 270.931 403.464 271.055C403.308 271.179 403.097 271.249 402.876 271.249Z" fill="#3F3D56"/>
<path d="M528.392 271.249C528.171 271.249 527.96 271.179 527.804 271.055C527.648 270.931 527.561 270.762 527.561 270.586V52.3927C527.561 52.2168 527.648 52.0481 527.804 51.9237C527.96 51.7994 528.171 51.7295 528.392 51.7295C528.612 51.7295 528.824 51.7994 528.979 51.9237C529.135 52.0481 529.223 52.2168 529.223 52.3927V270.586C529.223 270.762 529.135 270.931 528.979 271.055C528.824 271.179 528.612 271.249 528.392 271.249Z" fill="#3F3D56"/>
<path d="M196.662 143.641H166.289C165.297 143.64 164.346 143.325 163.645 142.766C162.944 142.206 162.549 141.448 162.548 140.657V112.06C162.549 111.268 162.944 110.51 163.645 109.95C164.346 109.391 165.297 109.076 166.289 109.075H196.662C197.653 109.076 198.604 109.391 199.305 109.95C200.007 110.51 200.401 111.268 200.402 112.06V140.657C200.401 141.448 200.007 142.206 199.305 142.766C198.604 143.325 197.653 143.64 196.662 143.641Z" fill="#FF7329"/>
<path d="M239.886 225.215H209.512C208.521 225.214 207.57 224.9 206.869 224.34C206.168 223.781 205.773 223.022 205.772 222.231V193.634C205.773 192.843 206.168 192.084 206.869 191.524C207.57 190.965 208.521 190.65 209.512 190.649H239.886C240.877 190.65 241.828 190.965 242.529 191.524C243.231 192.084 243.625 192.843 243.626 193.634V222.231C243.625 223.022 243.231 223.781 242.529 224.34C241.828 224.9 240.877 225.214 239.886 225.215Z" fill="#FF7329"/>
<path d="M337.97 160.884H307.597C306.606 160.883 305.655 160.569 304.954 160.009C304.252 159.45 303.858 158.691 303.857 157.9V129.303C303.858 128.512 304.252 127.753 304.954 127.193C305.655 126.634 306.606 126.319 307.597 126.318H337.97C338.962 126.319 339.913 126.634 340.614 127.193C341.315 127.753 341.71 128.512 341.711 129.303V157.9C341.71 158.691 341.315 159.45 340.614 160.009C339.913 160.569 338.962 160.883 337.97 160.884Z" fill="#FF7329"/>
<path d="M465.148 129.714H434.775C433.784 129.713 432.833 129.399 432.132 128.839C431.43 128.28 431.036 127.521 431.035 126.73V98.1328C431.036 97.3416 431.43 96.583 432.132 96.0235C432.833 95.464 433.784 95.1493 434.775 95.1484H465.148C466.14 95.1493 467.091 95.464 467.792 96.0235C468.493 96.583 468.888 97.3416 468.889 98.1328V126.73C468.888 127.521 468.493 128.28 467.792 128.839C467.091 129.399 466.14 129.713 465.148 129.714Z" fill="#FF7329"/>
<path d="M582.351 129.714H551.978C550.987 129.713 550.036 129.399 549.335 128.839C548.633 128.28 548.239 127.521 548.238 126.73V98.1328C548.239 97.3416 548.633 96.583 549.335 96.0235C550.036 95.464 550.987 95.1493 551.978 95.1484H582.351C583.343 95.1493 584.294 95.464 584.995 96.0235C585.696 96.583 586.091 97.3416 586.092 98.1328V126.73C586.091 127.521 585.696 128.28 584.995 128.839C584.294 129.399 583.343 129.713 582.351 129.714Z" fill="#FF7329"/>
<path d="M636.381 137.672H606.008C605.017 137.671 604.066 137.357 603.364 136.797C602.663 136.238 602.269 135.479 602.268 134.688V106.091C602.269 105.3 602.663 104.541 603.364 103.982C604.066 103.422 605.017 103.107 606.008 103.106H636.381C637.373 103.107 638.324 103.422 639.025 103.982C639.726 104.541 640.121 105.3 640.122 106.091V134.688C640.121 135.479 639.726 136.238 639.025 136.797C638.324 137.357 637.373 137.671 636.381 137.672Z" fill="#E6E6E6"/>
<path d="M612.276 188.739H581.903C580.911 188.738 579.96 188.423 579.259 187.864C578.558 187.304 578.163 186.545 578.162 185.754V157.157C578.163 156.366 578.558 155.607 579.259 155.048C579.96 154.488 580.911 154.174 581.903 154.173H612.276C613.267 154.174 614.218 154.488 614.919 155.048C615.621 155.607 616.015 156.366 616.016 157.157V185.754C616.015 186.545 615.621 187.304 614.919 187.864C614.218 188.423 613.267 188.738 612.276 188.739Z" fill="#E6E6E6"/>
<path d="M509.203 178.127H478.83C477.839 178.126 476.888 177.812 476.187 177.252C475.485 176.693 475.091 175.934 475.09 175.143V146.546C475.091 145.755 475.485 144.996 476.187 144.437C476.888 143.877 477.839 143.562 478.83 143.562H509.203C510.195 143.562 511.146 143.877 511.847 144.437C512.548 144.996 512.943 145.755 512.944 146.546V175.143C512.943 175.934 512.548 176.693 511.847 177.252C511.146 177.812 510.195 178.126 509.203 178.127Z" fill="#FF6584"/>
<path d="M450.186 188.739H419.813C418.822 188.738 417.871 188.423 417.17 187.864C416.468 187.304 416.074 186.545 416.073 185.754V157.157C416.074 156.366 416.468 155.607 417.17 155.048C417.871 154.488 418.822 154.174 419.813 154.173H450.186C451.178 154.174 452.129 154.488 452.83 155.048C453.531 155.607 453.926 156.366 453.927 157.157V185.754C453.926 186.545 453.531 187.304 452.83 187.864C452.129 188.423 451.178 188.738 450.186 188.739Z" fill="#E6E6E6"/>
<path d="M323.008 233.836H292.635C291.644 233.835 290.693 233.521 289.992 232.961C289.29 232.402 288.896 231.643 288.895 230.852V202.255C288.896 201.464 289.29 200.705 289.992 200.146C290.693 199.586 291.644 199.271 292.635 199.271H323.008C324 199.271 324.951 199.586 325.652 200.146C326.353 200.705 326.748 201.464 326.749 202.255V230.852C326.748 231.643 326.353 232.402 325.652 232.961C324.951 233.521 324 233.835 323.008 233.836Z" fill="#E6E6E6"/>
<path d="M169.231 196.034H138.858C137.866 196.033 136.916 195.718 136.214 195.158C135.513 194.599 135.119 193.84 135.118 193.049V164.452C135.119 163.661 135.513 162.902 136.214 162.343C136.916 161.783 137.866 161.469 138.858 161.468H169.231C170.223 161.469 171.174 161.783 171.875 162.343C172.576 162.902 172.971 163.661 172.972 164.452V193.049C172.971 193.84 172.576 194.599 171.875 195.158C171.174 195.718 170.223 196.033 169.231 196.034Z" fill="#FF6584"/>
<path d="M254.848 143.641H224.475C223.483 143.64 222.532 143.325 221.831 142.766C221.13 142.206 220.735 141.448 220.734 140.657V112.06C220.735 111.268 221.13 110.51 221.831 109.95C222.532 109.391 223.483 109.076 224.475 109.075H254.848C255.839 109.076 256.79 109.391 257.491 109.95C258.193 110.51 258.587 111.268 258.588 112.06V140.657C258.587 141.448 258.193 142.206 257.491 142.766C256.79 143.325 255.839 143.64 254.848 143.641Z" fill="#E6E6E6"/>
<path d="M229.981 64.33H182.601C181.719 64.33 180.874 64.0505 180.25 63.553C179.626 63.0555 179.276 62.3808 179.276 61.6772C179.276 60.9737 179.626 60.2989 180.25 59.8014C180.874 59.3039 181.719 59.0244 182.601 59.0244H229.981C230.863 59.0244 231.708 59.3039 232.332 59.8014C232.956 60.2989 233.306 60.9737 233.306 61.6772C233.306 62.3808 232.956 63.0555 232.332 63.553C231.708 64.0505 230.863 64.33 229.981 64.33Z" fill="#CCCCCC"/>
<path d="M363.809 64.33H316.429C315.547 64.33 314.701 64.0505 314.078 63.553C313.454 63.0555 313.104 62.3808 313.104 61.6772C313.104 60.9737 313.454 60.2989 314.078 59.8014C314.701 59.3039 315.547 59.0244 316.429 59.0244H363.809C364.69 59.0244 365.536 59.3039 366.16 59.8014C366.783 60.2989 367.134 60.9737 367.134 61.6772C367.134 62.3808 366.783 63.0555 366.16 63.553C365.536 64.0505 364.69 64.33 363.809 64.33Z" fill="#CCCCCC"/>
<path d="M489.324 64.33H441.944C441.062 64.33 440.216 64.0505 439.593 63.553C438.969 63.0555 438.619 62.3808 438.619 61.6772C438.619 60.9737 438.969 60.2989 439.593 59.8014C440.216 59.3039 441.062 59.0244 441.944 59.0244H489.324C490.206 59.0244 491.051 59.3039 491.675 59.8014C492.299 60.2989 492.649 60.9737 492.649 61.6772C492.649 62.3808 492.299 63.0555 491.675 63.553C491.051 64.0505 490.206 64.33 489.324 64.33Z" fill="#CCCCCC"/>
<path d="M606.527 64.33H559.147C558.265 64.33 557.42 64.0505 556.796 63.553C556.172 63.0555 555.822 62.3808 555.822 61.6772C555.822 60.9737 556.172 60.2989 556.796 59.8014C557.42 59.3039 558.265 59.0244 559.147 59.0244H606.527C607.409 59.0244 608.255 59.3039 608.878 59.8014C609.502 60.2989 609.852 60.9737 609.852 61.6772C609.852 62.3808 609.502 63.0555 608.878 63.553C608.255 64.0505 607.409 64.33 606.527 64.33Z" fill="#CCCCCC"/>
<path d="M123.861 258.577C122.644 258.482 121.469 258.175 120.418 257.679C119.366 257.182 118.464 256.508 117.774 255.703C117.085 254.898 116.625 253.982 116.427 253.02C116.229 252.058 116.298 251.073 116.629 250.134L95.322 234.309L106.587 232.029L127.539 245.588C129.478 246.136 131.099 247.232 132.092 248.669C133.086 250.107 133.384 251.785 132.931 253.386C132.478 254.987 131.304 256.4 129.632 257.357C127.96 258.313 125.907 258.748 123.861 258.577Z" fill="#FFB8B8"/>
<path d="M153.282 375.54H163.473L168.32 344.179H153.28L153.282 375.54Z" fill="#FFB8B8"/>
<path d="M183.126 383.089L151.098 383.09L151.098 373.217L170.751 373.216C174.033 373.216 177.181 374.256 179.501 376.108C181.822 377.959 183.126 380.47 183.126 383.089L183.126 383.089Z" fill="#2F2E41"/>
<path d="M83.4094 369.669L93.2578 371.761L108.054 342.45L93.5205 339.363L83.4094 369.669Z" fill="#FFB8B8"/>
<path d="M109.816 383.091L78.8658 376.518L82.0488 366.977L101.041 371.011C104.212 371.684 106.919 373.335 108.564 375.601C110.21 377.866 110.66 380.56 109.816 383.091Z" fill="#2F2E41"/>
<path d="M166.213 369.602H150.663C149.681 369.605 148.733 369.314 148.006 368.787C147.279 368.26 146.825 367.535 146.735 366.755L137.295 288.543C137.226 287.969 136.909 287.432 136.398 287.024C135.888 286.617 135.216 286.363 134.497 286.307C133.778 286.251 133.057 286.396 132.457 286.717C131.857 287.039 131.416 287.516 131.209 288.068L103.801 361.153C103.511 361.93 102.856 362.587 101.974 362.988C101.091 363.389 100.048 363.503 99.0629 363.306L84.597 360.42C84.0921 360.319 83.6172 360.14 83.1995 359.892C82.7818 359.644 82.4297 359.333 82.1634 358.976C81.897 358.62 81.7217 358.224 81.6476 357.813C81.5735 357.402 81.602 356.984 81.7315 356.582C81.9677 355.845 105.347 282.947 105.551 282.198C110.849 251.049 117.186 242.702 120.591 238.218C120.873 237.847 121.132 237.506 121.365 237.183C121.657 236.78 123.453 232.777 124.593 230.177C124.741 229.754 124.997 229.36 125.346 229.02C125.694 228.68 126.127 228.402 126.617 228.202C140.923 222.365 157.661 226.406 162.451 227.783C163.244 228.006 163.926 228.429 164.394 228.987C178.762 246.278 171.711 346.7 170.151 366.655C170.086 367.454 169.643 368.202 168.912 368.749C168.181 369.297 167.216 369.602 166.213 369.602Z" fill="#2F2E41"/>
<path d="M126.084 171.494C137.359 171.494 146.5 164.201 146.5 155.205C146.5 146.209 137.359 138.916 126.084 138.916C114.809 138.916 105.668 146.209 105.668 155.205C105.668 164.201 114.809 171.494 126.084 171.494Z" fill="#FFB8B8"/>
<path d="M123.921 233.339L123.774 233.226C123.499 233.013 96.2974 211.751 99.8178 192.091C101.323 183.682 109.851 178.309 124.478 176.552C129.852 175.915 135.334 176.847 139.915 179.177C144.496 181.507 147.87 185.077 149.415 189.233L163.878 228.683L123.921 233.339Z" fill="#CCCCCC"/>
<path d="M109.999 248.462L90.6158 233.095C89.2905 232.038 88.3283 230.727 87.8217 229.288C87.3151 227.849 87.2812 226.33 87.7233 224.877L97.1067 194.423C97.3878 193.511 97.9006 192.654 98.6134 191.906C99.3263 191.158 100.224 190.535 101.251 190.075C102.278 189.615 103.412 189.328 104.584 189.231C105.755 189.135 106.939 189.232 108.062 189.516C110.202 190.066 111.99 191.259 113.047 192.843C114.103 194.427 114.345 196.277 113.722 198L103.843 224.791L119.818 238.478L109.999 248.462Z" fill="#CCCCCC"/>
<path d="M213.961 196.018C213.449 196.903 212.7 197.687 211.766 198.316C210.832 198.945 209.737 199.403 208.557 199.658C207.378 199.913 206.143 199.958 204.939 199.791C203.735 199.623 202.592 199.247 201.59 198.689L175.714 209.39L176.858 200.3L199.797 188.973C201.084 187.692 202.914 186.832 204.942 186.556C206.97 186.28 209.055 186.608 210.801 187.476C212.547 188.344 213.833 189.693 214.415 191.268C214.998 192.842 214.836 194.532 213.962 196.018H213.961Z" fill="#FFB8B8"/>
<path d="M198.764 202.783L173.539 211.48C171.86 212.054 170.025 212.274 168.208 212.119C166.392 211.964 164.656 211.438 163.168 210.592L131.092 192.256C130.135 191.708 129.328 191.01 128.723 190.204C128.117 189.398 127.726 188.502 127.572 187.57C127.418 186.638 127.505 185.691 127.829 184.788C128.152 183.884 128.704 183.043 129.452 182.317C130.887 180.936 132.94 180.055 135.176 179.861C137.411 179.667 139.654 180.175 141.428 181.277L168.932 198.548L190.794 191.8L198.764 202.783Z" fill="#CCCCCC"/>
<path d="M129.469 160.424C131.987 157.907 136.693 157.771 140.152 156.11C144.684 153.935 146.557 149.073 145.097 145.018C143.637 140.962 139.33 137.801 134.392 136.29C129.454 134.778 123.961 134.759 118.752 135.49C110.996 136.578 103.361 139.466 98.6308 144.489C93.9007 149.512 92.697 156.868 96.9837 162.139C98.9539 164.561 101.995 166.56 102.782 169.379C103.815 173.079 100.561 176.648 97.0762 179.225C93.1056 182.16 88.5503 184.619 85.0717 187.928C81.593 191.237 79.2733 195.758 80.8607 199.887C82.1906 203.346 86.0608 205.895 90.3046 207.171C94.5485 208.448 99.1705 208.632 103.705 208.703C108.108 208.772 112.785 208.686 116.494 206.792C120.465 204.764 122.585 200.917 122.742 197.158C122.899 193.398 121.324 189.715 119.214 186.351C117.956 184.346 116.493 182.403 115.658 180.263C114.822 178.122 114.677 175.693 116.016 173.722C117.423 171.65 120.269 170.4 123.168 169.945C123.318 169.922 123.477 169.901 123.644 169.882C124.469 169.797 125.263 169.579 125.979 169.241C126.695 168.904 127.318 168.454 127.81 167.92C128.303 167.385 128.654 166.776 128.842 166.13C129.031 165.483 129.054 164.813 128.908 164.16C128.578 162.692 128.607 161.286 129.469 160.424Z" fill="#2F2E41"/>
<path d="M401.673 376.234H391.482L386.635 344.873L401.675 344.874L401.673 376.234Z" fill="#A0616A"/>
<path d="M384.203 373.911H403.857V383.784H371.829C371.829 382.488 372.149 381.204 372.771 380.006C373.393 378.808 374.304 377.72 375.453 376.803C376.602 375.886 377.967 375.159 379.468 374.663C380.969 374.167 382.578 373.911 384.203 373.911Z" fill="#2F2E41"/>
<path d="M475.615 367.024L466.346 370.402L445.604 343.483L459.285 338.497L475.615 367.024Z" fill="#A0616A"/>
<path d="M458.515 370.702L476.392 364.187L481.533 373.168L452.4 383.784C451.725 382.605 451.348 381.331 451.29 380.035C451.232 378.74 451.494 377.447 452.062 376.233C452.629 375.018 453.492 373.904 454.599 372.955C455.706 372.006 457.037 371.241 458.515 370.702Z" fill="#2F2E41"/>
<path d="M445.938 270.492C446.915 269.905 447.718 269.155 448.292 268.295C448.866 267.434 449.196 266.483 449.259 265.51C449.323 264.536 449.118 263.563 448.659 262.659C448.2 261.756 447.499 260.943 446.604 260.279L458.583 238.593L443.365 240.651L434.322 260.929C433.024 262.202 432.356 263.811 432.445 265.451C432.535 267.091 433.375 268.648 434.807 269.827C436.239 271.006 438.163 271.724 440.214 271.847C442.266 271.969 444.302 271.487 445.938 270.492Z" fill="#A0616A"/>
<path d="M401.024 367.965H391.288C390.344 367.963 389.436 367.676 388.745 367.163C388.053 366.65 387.629 365.948 387.558 365.197L382.249 252.082C382.209 251.649 382.289 251.214 382.482 250.807C382.675 250.401 382.977 250.033 383.367 249.73C383.757 249.426 384.225 249.195 384.739 249.051C385.253 248.906 385.801 248.854 386.343 248.896L442.646 253.667C443.558 253.738 444.406 254.074 445.029 254.611C445.651 255.148 446.005 255.849 446.022 256.58L447.202 306.477C447.209 306.747 447.274 307.015 447.397 307.268L470.492 355.054C470.671 355.423 470.756 355.816 470.741 356.212C470.727 356.608 470.615 356.997 470.41 357.357C470.206 357.718 469.914 358.042 469.551 358.312C469.187 358.581 468.761 358.79 468.295 358.927L458.43 361.827C457.573 362.079 456.631 362.072 455.78 361.808C454.929 361.543 454.229 361.04 453.811 360.392L425.439 316.376C425.284 316.137 425.171 315.882 425.103 315.618L420.256 296.986C420.115 296.446 419.738 295.964 419.192 295.625C418.646 295.287 417.967 295.114 417.276 295.139C416.585 295.164 415.928 295.385 415.422 295.761C414.917 296.138 414.596 296.646 414.517 297.194L404.74 365.32C404.636 366.048 404.199 366.72 403.514 367.208C402.829 367.696 401.942 367.965 401.024 367.965Z" fill="#2F2E41"/>
<path d="M405.871 163.637C417.147 163.637 426.287 156.345 426.287 147.348C426.287 138.352 417.147 131.06 405.871 131.06C394.596 131.06 385.456 138.352 385.456 147.348C385.456 156.345 394.596 163.637 405.871 163.637Z" fill="#A0616A"/>
<path d="M419.872 262.425C406.027 262.303 392.513 259.037 380.91 253.008L380.712 252.899L380.732 252.707L388.541 180.142C388.811 177.68 390.188 175.379 392.419 173.665C394.65 171.951 397.583 170.939 400.676 170.817C410.797 170.445 424.392 170.913 431.67 175.238C442.667 181.773 447.968 191.615 446.212 202.238C442.571 224.269 446.696 253.987 447.178 257.303L447.213 257.542L446.939 257.643C438.461 260.79 429.223 262.422 419.872 262.425Z" fill="#FF7329"/>
<path d="M447.084 257.427C446.508 257.426 445.939 257.33 445.413 257.145C444.886 256.959 444.414 256.689 444.024 256.351L439.559 252.464C439.076 252.041 438.738 251.527 438.576 250.97C438.415 250.413 438.436 249.832 438.637 249.284L448.82 221.785L433.326 195.825C432.602 194.609 432.425 193.233 432.824 191.925C433.176 190.778 433.955 189.743 435.059 188.956C436.163 188.169 437.54 187.667 439.009 187.518C440.478 187.368 441.968 187.577 443.285 188.117C444.602 188.657 445.682 189.503 446.384 190.543L467.41 217.762C468.264 218.867 468.765 220.121 468.869 221.416C468.974 222.711 468.678 224.007 468.008 225.189L450.877 255.474C450.594 255.975 450.161 256.412 449.614 256.745C449.067 257.078 448.425 257.298 447.746 257.384C447.527 257.412 447.306 257.426 447.084 257.427Z" fill="#FF7329"/>
<path d="M303.18 204.898C304.161 205.48 305.289 205.883 306.486 206.08C307.683 206.276 308.919 206.26 310.108 206.034C311.297 205.808 312.409 205.376 313.366 204.77C314.323 204.164 315.102 203.398 315.647 202.525L345.104 205.574L338.335 194.506L311.4 193.308C309.502 192.674 307.379 192.617 305.432 193.148C303.486 193.679 301.851 194.762 300.838 196.19C299.825 197.619 299.503 199.294 299.935 200.899C300.367 202.504 301.521 203.927 303.18 204.898V204.898Z" fill="#A0616A"/>
<path d="M368.109 210.942C367.596 210.942 367.083 210.914 366.575 210.858L320.233 205.73C319.476 205.647 318.757 205.414 318.14 205.054C317.523 204.694 317.028 204.217 316.7 203.666C316.594 203.489 316.506 203.305 316.436 203.116H316.436C316.256 202.627 316.206 202.113 316.289 201.607C316.371 201.101 316.584 200.614 316.914 200.177L320.749 195.104C321.161 194.562 321.741 194.114 322.434 193.802C323.126 193.49 323.907 193.325 324.702 193.323H324.708L365.102 193.36L395.271 171.795C396.674 170.794 398.467 170.208 400.347 170.137C401.998 170.076 403.634 170.416 405.038 171.111C406.442 171.807 407.549 172.826 408.213 174.033C408.876 175.241 409.066 176.581 408.755 177.876C408.445 179.172 407.65 180.361 406.476 181.289L376.373 208.001C375.331 208.927 374.057 209.667 372.633 210.174C371.209 210.68 369.668 210.942 368.109 210.942Z" fill="#FF7329"/>
<path d="M408.192 161.839C410.058 158.394 411.637 153.806 408.058 151.371C405.983 149.958 402.993 149.955 400.273 149.779C392.612 149.284 384.725 146.471 380.98 141.115C377.235 135.76 379.326 127.795 386.391 125.379C391.154 123.75 396.613 124.86 401.598 125.988L416.565 129.374C421.012 130.38 425.682 131.49 428.883 134.15C433.989 138.393 433.608 145.565 429.552 150.477C425.497 155.388 419.389 160.511 412.397 162.376L408.192 161.839Z" fill="#2F2E41"/>
<path d="M614.68 384H0.98967C0.859456 384.001 0.730451 383.98 0.61004 383.941C0.489629 383.901 0.380189 383.843 0.28798 383.77C0.19577 383.696 0.122608 383.609 0.0726895 383.513C0.0227712 383.417 -0.00292969 383.314 -0.00292969 383.211C-0.00292969 383.107 0.0227712 383.004 0.0726895 382.908C0.122608 382.812 0.19577 382.725 0.28798 382.651C0.380189 382.578 0.489629 382.52 0.61004 382.48C0.730451 382.441 0.859456 382.421 0.98967 382.421H614.68C614.81 382.421 614.939 382.441 615.06 382.48C615.18 382.52 615.289 382.578 615.382 382.651C615.474 382.725 615.547 382.812 615.597 382.908C615.647 383.004 615.673 383.107 615.673 383.211C615.673 383.314 615.647 383.417 615.597 383.513C615.547 383.609 615.474 383.696 615.382 383.77C615.289 383.843 615.18 383.901 615.06 383.941C614.939 383.98 614.81 384.001 614.68 384Z" fill="#3F3D56"/>
</g>
<defs>
<clipPath id="clip0_201:334">
<rect width="683" height="384" fill="white"/>
</clipPath>
</defs>
</svg>
