<svg width="80" height="80" viewBox="0 0 80 80" fill="none" xmlns="http://www.w3.org/2000/svg">
<path d="M40.0005 47.0776C43.9459 47.0776 47.1443 43.8792 47.1443 39.9338C47.1443 35.9884 43.9459 32.79 40.0005 32.79C36.0551 32.79 32.8567 35.9884 32.8567 39.9338C32.8567 43.8792 36.0551 47.0776 40.0005 47.0776Z" fill="#00D8FF"/>
<path fill-rule="evenodd" clip-rule="evenodd" d="M40.0006 25.4092C49.592 25.4092 58.5023 26.7855 65.2206 29.0983C73.3152 31.8851 78.2921 36.1091 78.2921 39.934C78.2921 43.9198 73.0176 48.4072 64.325 51.2872C57.7533 53.4645 49.1053 54.6012 40.0006 54.6012C30.6657 54.6012 21.826 53.5343 15.1802 51.2633C6.77208 48.3894 1.70776 43.8439 1.70776 39.934C1.70776 36.1402 6.45965 31.9488 14.4405 29.1663C21.1838 26.8152 30.3141 25.4092 39.9993 25.4092H40.0006Z" stroke="#00D8FF" stroke-width="2.73408"/>
<path fill-rule="evenodd" clip-rule="evenodd" d="M27.3563 32.7135C32.1481 24.4048 37.7914 17.3736 43.1513 12.7092C49.6092 7.0892 55.7547 4.88826 59.0679 6.79885C62.5208 8.79003 63.7731 15.6012 61.9255 24.5698C60.53 31.3506 57.193 39.4096 52.6444 47.2968C47.9808 55.3835 42.6408 62.508 37.3539 67.1292C30.664 72.9773 24.1962 75.0936 20.8092 73.1403C17.5226 71.2464 16.2658 65.0349 17.8424 56.7311C19.1746 49.7151 22.5177 41.1034 27.3547 32.7134L27.3563 32.7135Z" stroke="#00D8FF" stroke-width="2.73408"/>
<path fill-rule="evenodd" clip-rule="evenodd" d="M27.3683 47.3186C22.563 39.0193 19.2914 30.617 17.9257 23.6439C16.2819 15.2423 17.4441 8.81867 20.7544 6.90253C24.2039 4.90552 30.7302 7.22208 37.5775 13.302C42.7546 17.8987 48.0707 24.8132 52.6325 32.693C57.3095 40.7718 60.8148 48.9565 62.1784 55.8447C63.9039 64.5614 62.5073 71.2216 59.1235 73.1805C55.8402 75.0812 49.8319 73.0688 43.4253 67.5557C38.0123 62.8978 32.221 55.7004 27.3683 47.3185V47.3186Z" stroke="#00D8FF" stroke-width="2.73408"/>
</svg>
